<svg width="65" height="14" viewBox="0 0 65 14" fill="none" xmlns="http://www.w3.org/2000/svg">
<path d="M9.4831 0.175975V1.99438H5.86583V13.7652H3.63682V1.99438H0V0.175975H9.4831Z" fill="#E5E5E5"/>
<path d="M19.9331 10.9887H14.2433L13.2656 13.7652H10.9389L15.8075 0.156423H18.3885L23.2571 13.7652H20.9108L19.9331 10.9887ZM19.3075 9.17025L17.098 2.85471L14.869 9.17025H19.3075Z" fill="#E5E5E5"/>
<path d="M24.631 6.94124C24.631 5.61165 24.9373 4.41893 25.55 3.36308C26.1757 2.30723 27.0164 1.48601 28.0723 0.899428C29.1412 0.29981 30.3078 0 31.5722 0C33.0191 0 34.3031 0.358467 35.4241 1.0754C36.5582 1.7793 37.3794 2.78301 37.8878 4.08653H35.2091C34.8571 3.3696 34.3683 2.83515 33.7426 2.4832C33.1169 2.13125 32.3935 1.95528 31.5722 1.95528C30.6728 1.95528 29.8711 2.15732 29.1672 2.56141C28.4633 2.9655 27.9093 3.54557 27.5053 4.30161C27.1142 5.05765 26.9187 5.93753 26.9187 6.94124C26.9187 7.94495 27.1142 8.82482 27.5053 9.58086C27.9093 10.3369 28.4633 10.9235 29.1672 11.3406C29.8711 11.7447 30.6728 11.9467 31.5722 11.9467C32.3935 11.9467 33.1169 11.7708 33.7426 11.4188C34.3683 11.0669 34.8571 10.5324 35.2091 9.81549H37.8878C37.3794 11.119 36.5582 12.1227 35.4241 12.8266C34.3031 13.5305 33.0191 13.8825 31.5722 13.8825C30.2948 13.8825 29.1281 13.5892 28.0723 13.0026C27.0164 12.403 26.1757 11.5752 25.55 10.5194C24.9373 9.46354 24.631 8.27083 24.631 6.94124Z" fill="#E5E5E5"/>
<path d="M46.6951 13.902C45.4307 13.902 44.264 13.6087 43.1951 13.0222C42.1393 12.4225 41.2985 11.5948 40.6728 10.5389C40.0602 9.47006 39.7538 8.27083 39.7538 6.94124C39.7538 5.61165 40.0602 4.41893 40.6728 3.36308C41.2985 2.30723 42.1393 1.48601 43.1951 0.899428C44.264 0.29981 45.4307 0 46.6951 0C47.9725 0 49.1392 0.29981 50.195 0.899428C51.2639 1.48601 52.1047 2.30723 52.7173 3.36308C53.33 4.41893 53.6363 5.61165 53.6363 6.94124C53.6363 8.27083 53.33 9.47006 52.7173 10.5389C52.1047 11.5948 51.2639 12.4225 50.195 13.0222C49.1392 13.6087 47.9725 13.902 46.6951 13.902ZM46.6951 11.9663C47.5945 11.9663 48.3962 11.7643 49.1001 11.3602C49.804 10.943 50.3515 10.3565 50.7425 9.60041C51.1466 8.83134 51.3486 7.94495 51.3486 6.94124C51.3486 5.93753 51.1466 5.05765 50.7425 4.30161C50.3515 3.54557 49.804 2.9655 49.1001 2.56141C48.3962 2.15732 47.5945 1.95528 46.6951 1.95528C45.7957 1.95528 44.994 2.15732 44.2901 2.56141C43.5862 2.9655 43.0322 3.54557 42.6281 4.30161C42.2371 5.05765 42.0415 5.93753 42.0415 6.94124C42.0415 7.94495 42.2371 8.83134 42.6281 9.60041C43.0322 10.3565 43.5862 10.943 44.2901 11.3602C44.994 11.7643 45.7957 11.9663 46.6951 11.9663Z" fill="#E5E5E5"/>
<path d="M60.3073 13.902C59.3949 13.902 58.5737 13.7456 57.8437 13.4328C57.1137 13.1069 56.5402 12.6506 56.123 12.0641C55.7059 11.4775 55.4973 10.7931 55.4973 10.011H57.8828C57.9349 10.5976 58.163 11.0799 58.5671 11.4579C58.9843 11.8359 59.5643 12.025 60.3073 12.025C61.0764 12.025 61.676 11.8425 62.1062 11.4775C62.5363 11.0995 62.7514 10.6172 62.7514 10.0306C62.7514 9.57434 62.6146 9.20284 62.3408 8.91607C62.0801 8.62929 61.7477 8.40769 61.3436 8.25127C60.9526 8.09485 60.4051 7.92539 59.7012 7.7429C58.8148 7.50827 58.0913 7.27363 57.5308 7.039C56.9834 6.79133 56.5141 6.41331 56.123 5.90494C55.732 5.39657 55.5365 4.71874 55.5365 3.87145C55.5365 3.08934 55.732 2.40499 56.123 1.81841C56.5141 1.23183 57.0616 0.782112 57.7655 0.469268C58.4694 0.156423 59.2841 0 60.2096 0C61.5261 0 62.6015 0.332397 63.4358 0.997192C64.2831 1.64895 64.7523 2.54838 64.8436 3.69547H62.3799C62.3408 3.20014 62.1062 2.77649 61.676 2.42454C61.2459 2.07259 60.6788 1.89662 59.9749 1.89662C59.3362 1.89662 58.8148 2.05956 58.4107 2.38544C58.0066 2.71132 57.8046 3.18058 57.8046 3.79324C57.8046 4.21036 57.9284 4.5558 58.1761 4.82954C58.4368 5.09024 58.7627 5.2988 59.1537 5.45523C59.5448 5.61165 60.0792 5.7811 60.757 5.9636C61.6565 6.21127 62.3864 6.45893 62.947 6.7066C63.5205 6.95427 64.0028 7.33881 64.3939 7.86022C64.798 8.36859 65 9.05294 65 9.91326C65 10.6041 64.811 11.2559 64.433 11.8685C64.068 12.4812 63.527 12.9765 62.8101 13.3545C62.1062 13.7195 61.2719 13.902 60.3073 13.902Z" fill="#E5E5E5"/>
</svg>
