<svg width="854" height="39" viewBox="0 0 854 39" fill="none" xmlns="http://www.w3.org/2000/svg">
<path d="M7.27927 1.15568V2.5515H4.50264V11.5868H2.79164V2.5515H0V1.15568H7.27927Z" fill="#F7F7F7" fill-opacity="0.75"/>
<path d="M8.44175 7.41435C8.44175 6.58386 8.61185 5.84843 8.95205 5.20806C9.30225 4.56768 9.77253 4.07239 10.3629 3.72218C10.9632 3.36197 11.6236 3.18187 12.344 3.18187C12.9944 3.18187 13.5598 3.31194 14.04 3.5721C14.5303 3.82224 14.9206 4.13743 15.2107 4.51765V3.31695H16.9367V11.5868H15.2107V10.3561C14.9206 10.7463 14.5253 11.0715 14.025 11.3316C13.5247 11.5918 12.9544 11.7219 12.314 11.7219C11.6036 11.7219 10.9532 11.5418 10.3629 11.1816C9.77253 10.8113 9.30225 10.301 8.95205 9.65066C8.61185 8.99028 8.44175 8.24484 8.44175 7.41435ZM15.2107 7.44437C15.2107 6.87403 15.0907 6.37874 14.8505 5.9585C14.6204 5.53825 14.3152 5.21806 13.935 4.99793C13.5547 4.7778 13.1445 4.66774 12.7043 4.66774C12.264 4.66774 11.8538 4.7778 11.4735 4.99793C11.0933 5.20806 10.7831 5.52324 10.543 5.94349C10.3128 6.35373 10.1978 6.84402 10.1978 7.41435C10.1978 7.98469 10.3128 8.48498 10.543 8.91523C10.7831 9.34548 11.0933 9.67568 11.4735 9.90581C11.8638 10.1259 12.274 10.236 12.7043 10.236C13.1445 10.236 13.5547 10.1259 13.935 9.90581C14.3152 9.68568 14.6204 9.3655 14.8505 8.94525C15.0907 8.515 15.2107 8.0147 15.2107 7.44437Z" fill="#F7F7F7" fill-opacity="0.75"/>
<path d="M18.6137 7.44437C18.6137 6.59387 18.7838 5.84843 19.124 5.20806C19.4742 4.55767 19.9545 4.05738 20.5649 3.70717C21.1752 3.35697 21.8756 3.18187 22.6661 3.18187C23.6667 3.18187 24.4922 3.42201 25.1426 3.90229C25.8029 4.37257 26.2482 5.04796 26.4783 5.92848H24.6323C24.4822 5.51824 24.242 5.19805 23.9118 4.96792C23.5816 4.73778 23.1664 4.62271 22.6661 4.62271C21.9657 4.62271 21.4054 4.87286 20.9851 5.37315C20.5749 5.86344 20.3698 6.55385 20.3698 7.44437C20.3698 8.33489 20.5749 9.0303 20.9851 9.53059C21.4054 10.0309 21.9657 10.281 22.6661 10.281C23.6567 10.281 24.3121 9.84578 24.6323 8.97527H26.4783C26.2382 9.81576 25.7879 10.4862 25.1276 10.9864C24.4672 11.4767 23.6467 11.7219 22.6661 11.7219C21.8756 11.7219 21.1752 11.5468 20.5649 11.1966C19.9545 10.8364 19.4742 10.3361 19.124 9.69569C18.7838 9.04531 18.6137 8.29487 18.6137 7.44437Z" fill="#F7F7F7" fill-opacity="0.75"/>
<path d="M31.7706 11.7219C30.9901 11.7219 30.2847 11.5468 29.6543 11.1966C29.024 10.8364 28.5287 10.3361 28.1685 9.69569C27.8083 9.04531 27.6282 8.29487 27.6282 7.44437C27.6282 6.60387 27.8133 5.85844 28.1835 5.20806C28.5537 4.55767 29.059 4.05738 29.6994 3.70717C30.3398 3.35697 31.0552 3.18187 31.8456 3.18187C32.6361 3.18187 33.3515 3.35697 33.9919 3.70717C34.6323 4.05738 35.1376 4.55767 35.5078 5.20806C35.878 5.85844 36.0631 6.60387 36.0631 7.44437C36.0631 8.28486 35.873 9.0303 35.4928 9.68068C35.1126 10.3311 34.5922 10.8364 33.9319 11.1966C33.2815 11.5468 32.5611 11.7219 31.7706 11.7219ZM31.7706 10.236C32.2108 10.236 32.6211 10.1309 33.0013 9.92082C33.3915 9.7107 33.7067 9.39551 33.9469 8.97527C34.187 8.55502 34.3071 8.04472 34.3071 7.44437C34.3071 6.84402 34.192 6.33872 33.9619 5.92848C33.7317 5.50823 33.4266 5.19305 33.0463 4.98292C32.6661 4.7728 32.2559 4.66774 31.8156 4.66774C31.3754 4.66774 30.9651 4.7728 30.5849 4.98292C30.2147 5.19305 29.9195 5.50823 29.6994 5.92848C29.4792 6.33872 29.3692 6.84402 29.3692 7.44437C29.3692 8.33489 29.5943 9.0253 30.0446 9.51558C30.5049 9.99587 31.0802 10.236 31.7706 10.236Z" fill="#F7F7F7" fill-opacity="0.75"/>
<path d="M37.1842 7.44437C37.1842 6.59387 37.3543 5.84843 37.6945 5.20806C38.0447 4.55767 38.525 4.05738 39.1353 3.70717C39.7457 3.35697 40.4461 3.18187 41.2366 3.18187C42.2372 3.18187 43.0626 3.42201 43.713 3.90229C44.3734 4.37257 44.8187 5.04796 45.0488 5.92848H43.2027C43.0526 5.51824 42.8125 5.19805 42.4823 4.96792C42.1521 4.73778 41.7369 4.62271 41.2366 4.62271C40.5362 4.62271 39.9758 4.87286 39.5556 5.37315C39.1453 5.86344 38.9402 6.55385 38.9402 7.44437C38.9402 8.33489 39.1453 9.0303 39.5556 9.53059C39.9758 10.0309 40.5362 10.281 41.2366 10.281C42.2272 10.281 42.8825 9.84578 43.2027 8.97527H45.0488C44.8087 9.81576 44.3584 10.4862 43.698 10.9864C43.0376 11.4767 42.2172 11.7219 41.2366 11.7219C40.4461 11.7219 39.7457 11.5468 39.1353 11.1966C38.525 10.8364 38.0447 10.3361 37.6945 9.69569C37.3543 9.04531 37.1842 8.29487 37.1842 7.44437Z" fill="#F7F7F7" fill-opacity="0.75"/>
<path d="M50.3411 11.7219C49.5606 11.7219 48.8552 11.5468 48.2248 11.1966C47.5944 10.8364 47.0992 10.3361 46.7389 9.69569C46.3787 9.04531 46.1986 8.29487 46.1986 7.44437C46.1986 6.60387 46.3837 5.85844 46.754 5.20806C47.1242 4.55767 47.6295 4.05738 48.2698 3.70717C48.9102 3.35697 49.6256 3.18187 50.4161 3.18187C51.2066 3.18187 51.922 3.35697 52.5624 3.70717C53.2027 4.05738 53.708 4.55767 54.0783 5.20806C54.4485 5.85844 54.6336 6.60387 54.6336 7.44437C54.6336 8.28486 54.4435 9.0303 54.0632 9.68068C53.683 10.3311 53.1627 10.8364 52.5023 11.1966C51.8519 11.5468 51.1315 11.7219 50.3411 11.7219ZM50.3411 10.236C50.7813 10.236 51.1916 10.1309 51.5718 9.92082C51.962 9.7107 52.2772 9.39551 52.5173 8.97527C52.7575 8.55502 52.8775 8.04472 52.8775 7.44437C52.8775 6.84402 52.7625 6.33872 52.5323 5.92848C52.3022 5.50823 51.997 5.19305 51.6168 4.98292C51.2366 4.7728 50.8263 4.66774 50.3861 4.66774C49.9458 4.66774 49.5356 4.7728 49.1554 4.98292C48.7851 5.19305 48.49 5.50823 48.2698 5.92848C48.0497 6.33872 47.9397 6.84402 47.9397 7.44437C47.9397 8.33489 48.1648 9.0253 48.615 9.51558C49.0753 9.99587 49.6507 10.236 50.3411 10.236Z" fill="#F7F7F7" fill-opacity="0.75"/>
<path d="M57.1955 2.2213C56.8853 2.2213 56.6252 2.11624 56.4151 1.90612C56.2049 1.696 56.0999 1.43584 56.0999 1.12566C56.0999 0.815478 56.2049 0.555326 56.4151 0.345203C56.6252 0.135079 56.8853 0.0300173 57.1955 0.0300173C57.4957 0.0300173 57.7508 0.135079 57.961 0.345203C58.1711 0.555326 58.2761 0.815478 58.2761 1.12566C58.2761 1.43584 58.1711 1.696 57.961 1.90612C57.7508 2.11624 57.4957 2.2213 57.1955 2.2213ZM58.036 3.31695V11.5868H56.325V3.31695H58.036Z" fill="#F7F7F7" fill-opacity="0.75"/>
<path d="M64.4548 3.18187C65.1052 3.18187 65.6856 3.31695 66.1959 3.5871C66.7162 3.85726 67.1214 4.2575 67.4116 4.78781C67.7018 5.31812 67.8468 5.9585 67.8468 6.70894V11.5868H66.1508V6.96409C66.1508 6.22365 65.9657 5.65832 65.5955 5.26809C65.2253 4.86786 64.72 4.66774 64.0796 4.66774C63.4393 4.66774 62.929 4.86786 62.5487 5.26809C62.1785 5.65832 61.9934 6.22365 61.9934 6.96409V11.5868H60.2824V3.31695H61.9934V4.2625C62.2736 3.9223 62.6288 3.65715 63.059 3.46703C63.4993 3.27692 63.9646 3.18187 64.4548 3.18187Z" fill="#F7F7F7" fill-opacity="0.75"/>
<path d="M74.7986 2.2213C74.4884 2.2213 74.2283 2.11624 74.0181 1.90612C73.808 1.696 73.703 1.43584 73.703 1.12566C73.703 0.815478 73.808 0.555326 74.0181 0.345203C74.2283 0.135079 74.4884 0.0300173 74.7986 0.0300173C75.0988 0.0300173 75.3539 0.135079 75.5641 0.345203C75.7742 0.555326 75.8792 0.815478 75.8792 1.12566C75.8792 1.43584 75.7742 1.696 75.5641 1.90612C75.3539 2.11624 75.0988 2.2213 74.7986 2.2213ZM75.6391 3.31695V11.5868H73.9281V3.31695H75.6391Z" fill="#F7F7F7" fill-opacity="0.75"/>
<path d="M80.8873 11.7219C80.2369 11.7219 79.6515 11.6068 79.1312 11.3767C78.6209 11.1365 78.2157 10.8163 77.9155 10.4161C77.6153 10.0059 77.4552 9.5506 77.4352 9.05031H79.2063C79.2363 9.40052 79.4014 9.69569 79.7016 9.93583C80.0117 10.166 80.397 10.281 80.8572 10.281C81.3375 10.281 81.7077 10.191 81.9679 10.0109C82.2381 9.82076 82.3731 9.58062 82.3731 9.29045C82.3731 8.98027 82.2231 8.75013 81.9229 8.60004C81.6327 8.44996 81.1674 8.28486 80.527 8.10476C79.9067 7.93466 79.4014 7.76956 79.0112 7.60946C78.6209 7.44937 78.2807 7.20423 77.9906 6.87403C77.7104 6.54384 77.5703 6.10858 77.5703 5.56827C77.5703 5.12801 77.7004 4.72777 77.9605 4.36756C78.2207 3.99735 78.5909 3.70717 79.0712 3.49705C79.5615 3.28693 80.1218 3.18187 80.7522 3.18187C81.6927 3.18187 82.4482 3.42201 83.0185 3.90229C83.5989 4.37257 83.909 5.01794 83.9491 5.83843H82.2381C82.208 5.46821 82.0579 5.17304 81.7878 4.95291C81.5176 4.73278 81.1524 4.62271 80.6921 4.62271C80.2419 4.62271 79.8967 4.70776 79.6565 4.87786C79.4164 5.04796 79.2963 5.27309 79.2963 5.55326C79.2963 5.77339 79.3764 5.9585 79.5365 6.10858C79.6966 6.25867 79.8917 6.37874 80.1218 6.46879C80.352 6.54884 80.6921 6.6539 81.1424 6.78398C81.7428 6.94407 82.2331 7.10917 82.6133 7.27927C83.0035 7.43936 83.3387 7.67951 83.6189 7.99969C83.899 8.31988 84.0441 8.74513 84.0541 9.27544C84.0541 9.74572 83.924 10.166 83.6639 10.5362C83.4037 10.9064 83.0335 11.1966 82.5532 11.4067C82.083 11.6168 81.5276 11.7219 80.8873 11.7219Z" fill="#F7F7F7" fill-opacity="0.75"/>
<path d="M91.7978 4.71276V9.29045C91.7978 9.60063 91.8679 9.82577 92.008 9.96585C92.1581 10.0959 92.4082 10.161 92.7584 10.161H93.809V11.5868H92.4582C91.6878 11.5868 91.0974 11.4067 90.6872 11.0465C90.2769 10.6863 90.0718 10.1009 90.0718 9.29045V4.71276H89.0963V3.31695H90.0718V1.26074H91.7978V3.31695H93.809V4.71276H91.7978Z" fill="#F7F7F7" fill-opacity="0.75"/>
<path d="M99.6635 3.18187C100.294 3.18187 100.854 3.31695 101.345 3.5871C101.845 3.85726 102.235 4.2575 102.515 4.78781C102.805 5.31812 102.95 5.9585 102.95 6.70894V11.5868H101.254V6.96409C101.254 6.22365 101.069 5.65832 100.699 5.26809C100.329 4.86786 99.8236 4.66774 99.1832 4.66774C98.5429 4.66774 98.0326 4.86786 97.6523 5.26809C97.2821 5.65832 97.097 6.22365 97.097 6.96409V11.5868H95.386V0.480282H97.097V4.27751C97.3872 3.9273 97.7524 3.65715 98.1926 3.46703C98.6429 3.27692 99.1332 3.18187 99.6635 3.18187Z" fill="#F7F7F7" fill-opacity="0.75"/>
<path d="M112.712 7.24925C112.712 7.55944 112.692 7.8396 112.652 8.08975H106.334C106.384 8.75013 106.629 9.28045 107.069 9.68068C107.509 10.0809 108.05 10.281 108.69 10.281C109.611 10.281 110.261 9.89581 110.641 9.12535H112.487C112.237 9.8858 111.782 10.5112 111.121 11.0015C110.471 11.4817 109.661 11.7219 108.69 11.7219C107.9 11.7219 107.189 11.5468 106.559 11.1966C105.938 10.8364 105.448 10.3361 105.088 9.69569C104.738 9.04531 104.563 8.29487 104.563 7.44437C104.563 6.59387 104.733 5.84843 105.073 5.20806C105.423 4.55767 105.908 4.05738 106.529 3.70717C107.159 3.35697 107.88 3.18187 108.69 3.18187C109.47 3.18187 110.166 3.35197 110.776 3.69217C111.387 4.03237 111.862 4.51265 112.202 5.13301C112.542 5.74337 112.712 6.44878 112.712 7.24925ZM110.926 6.70894C110.916 6.07857 110.691 5.57327 110.251 5.19305C109.811 4.81282 109.265 4.62271 108.615 4.62271C108.025 4.62271 107.519 4.81282 107.099 5.19305C106.679 5.56326 106.429 6.06856 106.349 6.70894H110.926Z" fill="#F7F7F7" fill-opacity="0.75"/>
<path d="M121.762 4.71276H120.231V11.5868H118.505V4.71276H117.53V3.31695H118.505V2.7316C118.505 1.78104 118.755 1.09064 119.256 0.660387C119.766 0.220129 120.561 0 121.642 0V1.42584C121.122 1.42584 120.756 1.5259 120.546 1.72601C120.336 1.91612 120.231 2.25132 120.231 2.7316V3.31695H121.762V4.71276Z" fill="#F7F7F7" fill-opacity="0.75"/>
<path d="M124.149 2.2213C123.839 2.2213 123.579 2.11624 123.368 1.90612C123.158 1.696 123.053 1.43584 123.053 1.12566C123.053 0.815478 123.158 0.555326 123.368 0.345203C123.579 0.135079 123.839 0.0300173 124.149 0.0300173C124.449 0.0300173 124.704 0.135079 124.914 0.345203C125.124 0.555326 125.229 0.815478 125.229 1.12566C125.229 1.43584 125.124 1.696 124.914 1.90612C124.704 2.11624 124.449 2.2213 124.149 2.2213ZM124.989 3.31695V11.5868H123.278V3.31695H124.989Z" fill="#F7F7F7" fill-opacity="0.75"/>
<path d="M128.947 4.51765C129.197 4.0974 129.527 3.77221 129.937 3.54208C130.358 3.30194 130.853 3.18187 131.423 3.18187V4.95291H130.988C130.318 4.95291 129.807 5.12301 129.457 5.46321C129.117 5.80341 128.947 6.39375 128.947 7.23424V11.5868H127.236V3.31695H128.947V4.51765Z" fill="#F7F7F7" fill-opacity="0.75"/>
<path d="M135.998 11.7219C135.347 11.7219 134.762 11.6068 134.242 11.3767C133.731 11.1365 133.326 10.8163 133.026 10.4161C132.726 10.0059 132.566 9.5506 132.546 9.05031H134.317C134.347 9.40052 134.512 9.69569 134.812 9.93583C135.122 10.166 135.507 10.281 135.968 10.281C136.448 10.281 136.818 10.191 137.078 10.0109C137.349 9.82076 137.484 9.58062 137.484 9.29045C137.484 8.98027 137.334 8.75013 137.033 8.60004C136.743 8.44996 136.278 8.28486 135.638 8.10476C135.017 7.93466 134.512 7.76956 134.122 7.60946C133.731 7.44937 133.391 7.20423 133.101 6.87403C132.821 6.54384 132.681 6.10858 132.681 5.56827C132.681 5.12801 132.811 4.72777 133.071 4.36756C133.331 3.99735 133.701 3.70717 134.182 3.49705C134.672 3.28693 135.232 3.18187 135.863 3.18187C136.803 3.18187 137.559 3.42201 138.129 3.90229C138.709 4.37257 139.019 5.01794 139.06 5.83843H137.349C137.318 5.46821 137.168 5.17304 136.898 4.95291C136.628 4.73278 136.263 4.62271 135.803 4.62271C135.352 4.62271 135.007 4.70776 134.767 4.87786C134.527 5.04796 134.407 5.27309 134.407 5.55326C134.407 5.77339 134.487 5.9585 134.647 6.10858C134.807 6.25867 135.002 6.37874 135.232 6.46879C135.462 6.54884 135.803 6.6539 136.253 6.78398C136.853 6.94407 137.344 7.10917 137.724 7.27927C138.114 7.43936 138.449 7.67951 138.729 7.99969C139.009 8.31988 139.155 8.74513 139.165 9.27544C139.165 9.74572 139.034 10.166 138.774 10.5362C138.514 10.9064 138.144 11.1966 137.664 11.4067C137.193 11.6168 136.638 11.7219 135.998 11.7219Z" fill="#F7F7F7" fill-opacity="0.75"/>
<path d="M143.01 4.71276V9.29045C143.01 9.60063 143.08 9.82577 143.22 9.96585C143.37 10.0959 143.62 10.161 143.97 10.161H145.021V11.5868H143.67C142.899 11.5868 142.309 11.4067 141.899 11.0465C141.489 10.6863 141.284 10.1009 141.284 9.29045V4.71276H140.308V3.31695H141.284V1.26074H143.01V3.31695H145.021V4.71276H143.01Z" fill="#F7F7F7" fill-opacity="0.75"/>
<path d="M154.084 11.7219C153.303 11.7219 152.598 11.5468 151.967 11.1966C151.337 10.8364 150.842 10.3361 150.481 9.69569C150.121 9.04531 149.941 8.29487 149.941 7.44437C149.941 6.60387 150.126 5.85844 150.496 5.20806C150.867 4.55767 151.372 4.05738 152.012 3.70717C152.653 3.35697 153.368 3.18187 154.159 3.18187C154.949 3.18187 155.664 3.35697 156.305 3.70717C156.945 4.05738 157.451 4.55767 157.821 5.20806C158.191 5.85844 158.376 6.60387 158.376 7.44437C158.376 8.28486 158.186 9.0303 157.806 9.68068C157.426 10.3311 156.905 10.8364 156.245 11.1966C155.594 11.5468 154.874 11.7219 154.084 11.7219ZM154.084 10.236C154.524 10.236 154.934 10.1309 155.314 9.92082C155.705 9.7107 156.02 9.39551 156.26 8.97527C156.5 8.55502 156.62 8.04472 156.62 7.44437C156.62 6.84402 156.505 6.33872 156.275 5.92848C156.045 5.50823 155.74 5.19305 155.359 4.98292C154.979 4.7728 154.569 4.66774 154.129 4.66774C153.688 4.66774 153.278 4.7728 152.898 4.98292C152.528 5.19305 152.232 5.50823 152.012 5.92848C151.792 6.33872 151.682 6.84402 151.682 7.44437C151.682 8.33489 151.907 9.0253 152.358 9.51558C152.818 9.99587 153.393 10.236 154.084 10.236Z" fill="#F7F7F7" fill-opacity="0.75"/>
<path d="M163.535 4.71276H162.004V11.5868H160.278V4.71276H159.302V3.31695H160.278V2.7316C160.278 1.78104 160.528 1.09064 161.028 0.660387C161.538 0.220129 162.334 0 163.414 0V1.42584C162.894 1.42584 162.529 1.5259 162.319 1.72601C162.109 1.91612 162.004 2.25132 162.004 2.7316V3.31695H163.535V4.71276Z" fill="#F7F7F7" fill-opacity="0.75"/>
<path d="M169.82 2.2213C169.51 2.2213 169.25 2.11624 169.04 1.90612C168.83 1.696 168.725 1.43584 168.725 1.12566C168.725 0.815478 168.83 0.555326 169.04 0.345203C169.25 0.135079 169.51 0.0300173 169.82 0.0300173C170.12 0.0300173 170.375 0.135079 170.586 0.345203C170.796 0.555326 170.901 0.815478 170.901 1.12566C170.901 1.43584 170.796 1.696 170.586 1.90612C170.375 2.11624 170.12 2.2213 169.82 2.2213ZM170.661 3.31695V11.5868H168.95V3.31695H170.661Z" fill="#F7F7F7" fill-opacity="0.75"/>
<path d="M174.903 4.71276V9.29045C174.903 9.60063 174.973 9.82577 175.113 9.96585C175.263 10.0959 175.514 10.161 175.864 10.161H176.914V11.5868H175.564C174.793 11.5868 174.203 11.4067 173.793 11.0465C173.382 10.6863 173.177 10.1009 173.177 9.29045V4.71276H172.202V3.31695H173.177V1.26074H174.903V3.31695H176.914V4.71276H174.903Z" fill="#F7F7F7" fill-opacity="0.75"/>
<path d="M181.493 11.7219C180.843 11.7219 180.257 11.6068 179.737 11.3767C179.227 11.1365 178.822 10.8163 178.521 10.4161C178.221 10.0059 178.061 9.5506 178.041 9.05031H179.812C179.842 9.40052 180.007 9.69569 180.307 9.93583C180.618 10.166 181.003 10.281 181.463 10.281C181.943 10.281 182.314 10.191 182.574 10.0109C182.844 9.82076 182.979 9.58062 182.979 9.29045C182.979 8.98027 182.829 8.75013 182.529 8.60004C182.239 8.44996 181.773 8.28486 181.133 8.10476C180.513 7.93466 180.007 7.76956 179.617 7.60946C179.227 7.44937 178.887 7.20423 178.596 6.87403C178.316 6.54384 178.176 6.10858 178.176 5.56827C178.176 5.12801 178.306 4.72777 178.566 4.36756C178.827 3.99735 179.197 3.70717 179.677 3.49705C180.167 3.28693 180.728 3.18187 181.358 3.18187C182.299 3.18187 183.054 3.42201 183.624 3.90229C184.205 4.37257 184.515 5.01794 184.555 5.83843H182.844C182.814 5.46821 182.664 5.17304 182.394 4.95291C182.124 4.73278 181.758 4.62271 181.298 4.62271C180.848 4.62271 180.503 4.70776 180.262 4.87786C180.022 5.04796 179.902 5.27309 179.902 5.55326C179.902 5.77339 179.982 5.9585 180.142 6.10858C180.302 6.25867 180.498 6.37874 180.728 6.46879C180.958 6.54884 181.298 6.6539 181.748 6.78398C182.349 6.94407 182.839 7.10917 183.219 7.27927C183.609 7.43936 183.945 7.67951 184.225 7.99969C184.505 8.31988 184.65 8.74513 184.66 9.27544C184.66 9.74572 184.53 10.166 184.27 10.5362C184.01 10.9064 183.639 11.1966 183.159 11.4067C182.689 11.6168 182.134 11.7219 181.493 11.7219Z" fill="#F7F7F7" fill-opacity="0.75"/>
<path d="M193.679 7.45938L197.492 11.5868H195.18L192.119 8.02971V11.5868H190.408V0.480282H192.119V6.93407L195.12 3.31695H197.492L193.679 7.45938Z" fill="#F7F7F7" fill-opacity="0.75"/>
<path d="M199.589 2.2213C199.278 2.2213 199.018 2.11624 198.808 1.90612C198.598 1.696 198.493 1.43584 198.493 1.12566C198.493 0.815478 198.598 0.555326 198.808 0.345203C199.018 0.135079 199.278 0.0300173 199.589 0.0300173C199.889 0.0300173 200.144 0.135079 200.354 0.345203C200.564 0.555326 200.669 0.815478 200.669 1.12566C200.669 1.43584 200.564 1.696 200.354 1.90612C200.144 2.11624 199.889 2.2213 199.589 2.2213ZM200.429 3.31695V11.5868H198.718V3.31695H200.429Z" fill="#F7F7F7" fill-opacity="0.75"/>
<path d="M206.848 3.18187C207.498 3.18187 208.079 3.31695 208.589 3.5871C209.109 3.85726 209.515 4.2575 209.805 4.78781C210.095 5.31812 210.24 5.9585 210.24 6.70894V11.5868H208.544V6.96409C208.544 6.22365 208.359 5.65832 207.989 5.26809C207.618 4.86786 207.113 4.66774 206.473 4.66774C205.832 4.66774 205.322 4.86786 204.942 5.26809C204.572 5.65832 204.387 6.22365 204.387 6.96409V11.5868H202.676V3.31695H204.387V4.2625C204.667 3.9223 205.022 3.65715 205.452 3.46703C205.892 3.27692 206.358 3.18187 206.848 3.18187Z" fill="#F7F7F7" fill-opacity="0.75"/>
<path d="M211.852 7.41435C211.852 6.58386 212.022 5.84843 212.362 5.20806C212.713 4.56768 213.183 4.07239 213.773 3.72218C214.374 3.36197 215.039 3.18187 215.769 3.18187C216.31 3.18187 216.84 3.30194 217.36 3.54208C217.891 3.77221 218.311 4.0824 218.621 4.47262V0.480282H220.347V11.5868H218.621V10.3411C218.341 10.7413 217.951 11.0715 217.45 11.3316C216.96 11.5918 216.395 11.7219 215.754 11.7219C215.034 11.7219 214.374 11.5418 213.773 11.1816C213.183 10.8113 212.713 10.301 212.362 9.65066C212.022 8.99028 211.852 8.24484 211.852 7.41435ZM218.621 7.44437C218.621 6.87403 218.501 6.37874 218.261 5.9585C218.031 5.53825 217.726 5.21806 217.345 4.99793C216.965 4.7778 216.555 4.66774 216.115 4.66774C215.674 4.66774 215.264 4.7778 214.884 4.99793C214.504 5.20806 214.193 5.52324 213.953 5.94349C213.723 6.35373 213.608 6.84402 213.608 7.41435C213.608 7.98469 213.723 8.48498 213.953 8.91523C214.193 9.34548 214.504 9.67568 214.884 9.90581C215.274 10.1259 215.684 10.236 216.115 10.236C216.555 10.236 216.965 10.1259 217.345 9.90581C217.726 9.68568 218.031 9.3655 218.261 8.94525C218.501 8.515 218.621 8.0147 218.621 7.44437Z" fill="#F7F7F7" fill-opacity="0.75"/>
<path d="M230.08 11.7219C229.3 11.7219 228.594 11.5468 227.964 11.1966C227.334 10.8364 226.838 10.3361 226.478 9.69569C226.118 9.04531 225.938 8.29487 225.938 7.44437C225.938 6.60387 226.123 5.85844 226.493 5.20806C226.863 4.55767 227.369 4.05738 228.009 3.70717C228.649 3.35697 229.365 3.18187 230.155 3.18187C230.946 3.18187 231.661 3.35697 232.302 3.70717C232.942 4.05738 233.447 4.55767 233.817 5.20806C234.188 5.85844 234.373 6.60387 234.373 7.44437C234.373 8.28486 234.183 9.0303 233.802 9.68068C233.422 10.3311 232.902 10.8364 232.242 11.1966C231.591 11.5468 230.871 11.7219 230.08 11.7219ZM230.08 10.236C230.521 10.236 230.931 10.1309 231.311 9.92082C231.701 9.7107 232.016 9.39551 232.257 8.97527C232.497 8.55502 232.617 8.04472 232.617 7.44437C232.617 6.84402 232.502 6.33872 232.272 5.92848C232.041 5.50823 231.736 5.19305 231.356 4.98292C230.976 4.7728 230.566 4.66774 230.125 4.66774C229.685 4.66774 229.275 4.7728 228.895 4.98292C228.524 5.19305 228.229 5.50823 228.009 5.92848C227.789 6.33872 227.679 6.84402 227.679 7.44437C227.679 8.33489 227.904 9.0253 228.354 9.51558C228.815 9.99587 229.39 10.236 230.08 10.236Z" fill="#F7F7F7" fill-opacity="0.75"/>
<path d="M240.237 3.18187C240.887 3.18187 241.467 3.31695 241.978 3.5871C242.498 3.85726 242.903 4.2575 243.193 4.78781C243.484 5.31812 243.629 5.9585 243.629 6.70894V11.5868H241.933V6.96409C241.933 6.22365 241.748 5.65832 241.377 5.26809C241.007 4.86786 240.502 4.66774 239.861 4.66774C239.221 4.66774 238.711 4.86786 238.331 5.26809C237.96 5.65832 237.775 6.22365 237.775 6.96409V11.5868H236.064V3.31695H237.775V4.2625C238.055 3.9223 238.411 3.65715 238.841 3.46703C239.281 3.27692 239.746 3.18187 240.237 3.18187Z" fill="#F7F7F7" fill-opacity="0.75"/>
<path d="M255.999 9.45555H251.631L250.881 11.5868H249.095L252.832 1.14067H254.813L258.55 11.5868H256.749L255.999 9.45555ZM255.518 8.05973L253.822 3.21188L252.111 8.05973H255.518Z" fill="#F7F7F7" fill-opacity="0.75"/>
<path d="M261.886 0.480282V11.5868H260.175V0.480282H261.886Z" fill="#F7F7F7" fill-opacity="0.75"/>
<path d="M267.464 3.18187C268.105 3.18187 268.67 3.31194 269.16 3.5721C269.661 3.82224 270.051 4.13743 270.331 4.51765V3.31695H272.057V11.7219C272.057 12.4823 271.897 13.1577 271.577 13.7481C271.257 14.3484 270.791 14.8187 270.181 15.1589C269.581 15.4991 268.86 15.6692 268.02 15.6692C266.899 15.6692 265.969 15.404 265.228 14.8737C264.488 14.3534 264.067 13.643 263.967 12.7425H265.663C265.793 13.1727 266.069 13.5179 266.489 13.7781C266.919 14.0482 267.429 14.1833 268.02 14.1833C268.71 14.1833 269.265 13.9732 269.686 13.553C270.116 13.1327 270.331 12.5223 270.331 11.7219V10.3411C270.041 10.7313 269.646 11.0615 269.145 11.3316C268.655 11.5918 268.095 11.7219 267.464 11.7219C266.744 11.7219 266.084 11.5418 265.483 11.1816C264.893 10.8113 264.423 10.301 264.072 9.65066C263.732 8.99028 263.562 8.24484 263.562 7.41435C263.562 6.58386 263.732 5.84843 264.072 5.20806C264.423 4.56768 264.893 4.07239 265.483 3.72218C266.084 3.36197 266.744 3.18187 267.464 3.18187ZM270.331 7.44437C270.331 6.87403 270.211 6.37874 269.971 5.9585C269.741 5.53825 269.436 5.21806 269.055 4.99793C268.675 4.7778 268.265 4.66774 267.825 4.66774C267.384 4.66774 266.974 4.7778 266.594 4.99793C266.214 5.20806 265.904 5.52324 265.663 5.94349C265.433 6.35373 265.318 6.84402 265.318 7.41435C265.318 7.98469 265.433 8.48498 265.663 8.91523C265.904 9.34548 266.214 9.67568 266.594 9.90581C266.984 10.1259 267.394 10.236 267.825 10.236C268.265 10.236 268.675 10.1259 269.055 9.90581C269.436 9.68568 269.741 9.3655 269.971 8.94525C270.211 8.515 270.331 8.0147 270.331 7.44437Z" fill="#F7F7F7" fill-opacity="0.75"/>
<path d="M277.892 11.7219C277.111 11.7219 276.406 11.5468 275.775 11.1966C275.145 10.8364 274.65 10.3361 274.289 9.69569C273.929 9.04531 273.749 8.29487 273.749 7.44437C273.749 6.60387 273.934 5.85844 274.304 5.20806C274.675 4.55767 275.18 4.05738 275.82 3.70717C276.461 3.35697 277.176 3.18187 277.967 3.18187C278.757 3.18187 279.472 3.35697 280.113 3.70717C280.753 4.05738 281.259 4.55767 281.629 5.20806C281.999 5.85844 282.184 6.60387 282.184 7.44437C282.184 8.28486 281.994 9.0303 281.614 9.68068C281.234 10.3311 280.713 10.8364 280.053 11.1966C279.402 11.5468 278.682 11.7219 277.892 11.7219ZM277.892 10.236C278.332 10.236 278.742 10.1309 279.122 9.92082C279.513 9.7107 279.828 9.39551 280.068 8.97527C280.308 8.55502 280.428 8.04472 280.428 7.44437C280.428 6.84402 280.313 6.33872 280.083 5.92848C279.853 5.50823 279.548 5.19305 279.167 4.98292C278.787 4.7728 278.377 4.66774 277.937 4.66774C277.496 4.66774 277.086 4.7728 276.706 4.98292C276.336 5.19305 276.04 5.50823 275.82 5.92848C275.6 6.33872 275.49 6.84402 275.49 7.44437C275.49 8.33489 275.715 9.0253 276.166 9.51558C276.626 9.99587 277.201 10.236 277.892 10.236Z" fill="#F7F7F7" fill-opacity="0.75"/>
<path d="M285.586 4.51765C285.837 4.0974 286.167 3.77221 286.577 3.54208C286.997 3.30194 287.493 3.18187 288.063 3.18187V4.95291H287.628C286.957 4.95291 286.447 5.12301 286.097 5.46321C285.757 5.80341 285.586 6.39375 285.586 7.23424V11.5868H283.876V3.31695H285.586V4.51765Z" fill="#F7F7F7" fill-opacity="0.75"/>
<path d="M289.065 7.41435C289.065 6.58386 289.235 5.84843 289.576 5.20806C289.926 4.56768 290.396 4.07239 290.987 3.72218C291.587 3.36197 292.247 3.18187 292.968 3.18187C293.618 3.18187 294.183 3.31194 294.664 3.5721C295.154 3.82224 295.544 4.13743 295.834 4.51765V3.31695H297.56V11.5868H295.834V10.3561C295.544 10.7463 295.149 11.0715 294.649 11.3316C294.148 11.5918 293.578 11.7219 292.938 11.7219C292.227 11.7219 291.577 11.5418 290.987 11.1816C290.396 10.8113 289.926 10.301 289.576 9.65066C289.235 8.99028 289.065 8.24484 289.065 7.41435ZM295.834 7.44437C295.834 6.87403 295.714 6.37874 295.474 5.9585C295.244 5.53825 294.939 5.21806 294.559 4.99793C294.178 4.7778 293.768 4.66774 293.328 4.66774C292.888 4.66774 292.477 4.7778 292.097 4.99793C291.717 5.20806 291.407 5.52324 291.167 5.94349C290.936 6.35373 290.821 6.84402 290.821 7.41435C290.821 7.98469 290.936 8.48498 291.167 8.91523C291.407 9.34548 291.717 9.67568 292.097 9.90581C292.487 10.1259 292.898 10.236 293.328 10.236C293.768 10.236 294.178 10.1259 294.559 9.90581C294.939 9.68568 295.244 9.3655 295.474 8.94525C295.714 8.515 295.834 8.0147 295.834 7.44437Z" fill="#F7F7F7" fill-opacity="0.75"/>
<path d="M303.98 3.18187C304.631 3.18187 305.211 3.31695 305.721 3.5871C306.241 3.85726 306.647 4.2575 306.937 4.78781C307.227 5.31812 307.372 5.9585 307.372 6.70894V11.5868H305.676V6.96409C305.676 6.22365 305.491 5.65832 305.121 5.26809C304.751 4.86786 304.245 4.66774 303.605 4.66774C302.965 4.66774 302.454 4.86786 302.074 5.26809C301.704 5.65832 301.519 6.22365 301.519 6.96409V11.5868H299.808V3.31695H301.519V4.2625C301.799 3.9223 302.154 3.65715 302.584 3.46703C303.025 3.27692 303.49 3.18187 303.98 3.18187Z" fill="#F7F7F7" fill-opacity="0.75"/>
<path d="M308.984 7.41435C308.984 6.58386 309.154 5.84843 309.495 5.20806C309.845 4.56768 310.315 4.07239 310.905 3.72218C311.506 3.36197 312.171 3.18187 312.902 3.18187C313.442 3.18187 313.972 3.30194 314.493 3.54208C315.023 3.77221 315.443 4.0824 315.753 4.47262V0.480282H317.479V11.5868H315.753V10.3411C315.473 10.7413 315.083 11.0715 314.583 11.3316C314.092 11.5918 313.527 11.7219 312.887 11.7219C312.166 11.7219 311.506 11.5418 310.905 11.1816C310.315 10.8113 309.845 10.301 309.495 9.65066C309.154 8.99028 308.984 8.24484 308.984 7.41435ZM315.753 7.44437C315.753 6.87403 315.633 6.37874 315.393 5.9585C315.163 5.53825 314.858 5.21806 314.478 4.99793C314.097 4.7778 313.687 4.66774 313.247 4.66774C312.807 4.66774 312.396 4.7778 312.016 4.99793C311.636 5.20806 311.326 5.52324 311.086 5.94349C310.855 6.35373 310.74 6.84402 310.74 7.41435C310.74 7.98469 310.855 8.48498 311.086 8.91523C311.326 9.34548 311.636 9.67568 312.016 9.90581C312.406 10.1259 312.817 10.236 313.247 10.236C313.687 10.236 314.097 10.1259 314.478 9.90581C314.858 9.68568 315.163 9.3655 315.393 8.94525C315.633 8.515 315.753 8.0147 315.753 7.44437Z" fill="#F7F7F7" fill-opacity="0.75"/>
<path d="M323.434 11.6919C323.124 11.6919 322.863 11.5868 322.653 11.3767C322.443 11.1666 322.338 10.9064 322.338 10.5962C322.338 10.286 322.443 10.0259 322.653 9.81576C322.863 9.60564 323.124 9.50057 323.434 9.50057C323.734 9.50057 323.989 9.60564 324.199 9.81576C324.409 10.0259 324.514 10.286 324.514 10.5962C324.514 10.9064 324.409 11.1666 324.199 11.3767C323.989 11.5868 323.734 11.6919 323.434 11.6919ZM326.466 11.6919C326.155 11.6919 325.895 11.5868 325.685 11.3767C325.475 11.1666 325.37 10.9064 325.37 10.5962C325.37 10.286 325.475 10.0259 325.685 9.81576C325.895 9.60564 326.155 9.50057 326.466 9.50057C326.766 9.50057 327.021 9.60564 327.231 9.81576C327.441 10.0259 327.546 10.286 327.546 10.5962C327.546 10.9064 327.441 11.1666 327.231 11.3767C327.021 11.5868 326.766 11.6919 326.466 11.6919ZM320.417 11.6919C320.107 11.6919 319.847 11.5868 319.637 11.3767C319.426 11.1666 319.321 10.9064 319.321 10.5962C319.321 10.286 319.426 10.0259 319.637 9.81576C319.847 9.60564 320.107 9.50057 320.417 9.50057C320.717 9.50057 320.972 9.60564 321.182 9.81576C321.393 10.0259 321.498 10.286 321.498 10.5962C321.498 10.9064 321.393 11.1666 321.182 11.3767C320.972 11.5868 320.717 11.6919 320.417 11.6919Z" fill="#F7F7F7" fill-opacity="0.75"/>
<path d="M332.626 7.41435C332.626 6.58386 332.796 5.84843 333.136 5.20806C333.487 4.56768 333.957 4.07239 334.547 3.72218C335.148 3.36197 335.808 3.18187 336.528 3.18187C337.179 3.18187 337.744 3.31194 338.224 3.5721C338.715 3.82224 339.105 4.13743 339.395 4.51765V3.31695H341.121V11.5868H339.395V10.3561C339.105 10.7463 338.71 11.0715 338.209 11.3316C337.709 11.5918 337.139 11.7219 336.498 11.7219C335.788 11.7219 335.138 11.5418 334.547 11.1816C333.957 10.8113 333.487 10.301 333.136 9.65066C332.796 8.99028 332.626 8.24484 332.626 7.41435ZM339.395 7.44437C339.395 6.87403 339.275 6.37874 339.035 5.9585C338.805 5.53825 338.5 5.21806 338.119 4.99793C337.739 4.7778 337.329 4.66774 336.889 4.66774C336.448 4.66774 336.038 4.7778 335.658 4.99793C335.278 5.20806 334.967 5.52324 334.727 5.94349C334.497 6.35373 334.382 6.84402 334.382 7.41435C334.382 7.98469 334.497 8.48498 334.727 8.91523C334.967 9.34548 335.278 9.67568 335.658 9.90581C336.048 10.1259 336.458 10.236 336.889 10.236C337.329 10.236 337.739 10.1259 338.119 9.90581C338.5 9.68568 338.805 9.3655 339.035 8.94525C339.275 8.515 339.395 8.0147 339.395 7.44437Z" fill="#F7F7F7" fill-opacity="0.75"/>
<path d="M345.079 0.480282V11.5868H343.368V0.480282H345.079Z" fill="#F7F7F7" fill-opacity="0.75"/>
<path d="M349.037 0.480282V11.5868H347.326V0.480282H349.037Z" fill="#F7F7F7" fill-opacity="0.75"/>
<path d="M354.87 11.7219C354.09 11.7219 353.384 11.5468 352.754 11.1966C352.124 10.8364 351.628 10.3361 351.268 9.69569C350.908 9.04531 350.728 8.29487 350.728 7.44437C350.728 6.60387 350.913 5.85844 351.283 5.20806C351.653 4.55767 352.159 4.05738 352.799 3.70717C353.44 3.35697 354.155 3.18187 354.945 3.18187C355.736 3.18187 356.451 3.35697 357.092 3.70717C357.732 4.05738 358.237 4.55767 358.608 5.20806C358.978 5.85844 359.163 6.60387 359.163 7.44437C359.163 8.28486 358.973 9.0303 358.592 9.68068C358.212 10.3311 357.692 10.8364 357.032 11.1966C356.381 11.5468 355.661 11.7219 354.87 11.7219ZM354.87 10.236C355.311 10.236 355.721 10.1309 356.101 9.92082C356.491 9.7107 356.806 9.39551 357.047 8.97527C357.287 8.55502 357.407 8.04472 357.407 7.44437C357.407 6.84402 357.292 6.33872 357.062 5.92848C356.831 5.50823 356.526 5.19305 356.146 4.98292C355.766 4.7728 355.356 4.66774 354.915 4.66774C354.475 4.66774 354.065 4.7728 353.685 4.98292C353.314 5.19305 353.019 5.50823 352.799 5.92848C352.579 6.33872 352.469 6.84402 352.469 7.44437C352.469 8.33489 352.694 9.0253 353.144 9.51558C353.605 9.99587 354.18 10.236 354.87 10.236Z" fill="#F7F7F7" fill-opacity="0.75"/>
<path d="M371.961 3.31695L369.394 11.5868H367.593L365.927 5.47821L364.261 11.5868H362.46L359.879 3.31695H361.62L363.346 9.96585L365.102 3.31695H366.888L368.569 9.93583L370.28 3.31695H371.961Z" fill="#F7F7F7" fill-opacity="0.75"/>
<path d="M374.11 2.2213C373.8 2.2213 373.54 2.11624 373.33 1.90612C373.119 1.696 373.014 1.43584 373.014 1.12566C373.014 0.815478 373.119 0.555326 373.33 0.345203C373.54 0.135079 373.8 0.0300173 374.11 0.0300173C374.41 0.0300173 374.665 0.135079 374.875 0.345203C375.086 0.555326 375.191 0.815478 375.191 1.12566C375.191 1.43584 375.086 1.696 374.875 1.90612C374.665 2.11624 374.41 2.2213 374.11 2.2213ZM374.95 3.31695V11.5868H373.239V3.31695H374.95Z" fill="#F7F7F7" fill-opacity="0.75"/>
<path d="M381.369 3.18187C382.02 3.18187 382.6 3.31695 383.11 3.5871C383.631 3.85726 384.036 4.2575 384.326 4.78781C384.616 5.31812 384.761 5.9585 384.761 6.70894V11.5868H383.065V6.96409C383.065 6.22365 382.88 5.65832 382.51 5.26809C382.14 4.86786 381.634 4.66774 380.994 4.66774C380.354 4.66774 379.843 4.86786 379.463 5.26809C379.093 5.65832 378.908 6.22365 378.908 6.96409V11.5868H377.197V3.31695H378.908V4.2625C379.188 3.9223 379.543 3.65715 379.973 3.46703C380.414 3.27692 380.879 3.18187 381.369 3.18187Z" fill="#F7F7F7" fill-opacity="0.75"/>
<path d="M390.276 3.18187C390.916 3.18187 391.481 3.31194 391.972 3.5721C392.472 3.82224 392.862 4.13743 393.142 4.51765V3.31695H394.868V11.7219C394.868 12.4823 394.708 13.1577 394.388 13.7481C394.068 14.3484 393.603 14.8187 392.992 15.1589C392.392 15.4991 391.672 15.6692 390.831 15.6692C389.71 15.6692 388.78 15.404 388.039 14.8737C387.299 14.3534 386.879 13.643 386.779 12.7425H388.475C388.605 13.1727 388.88 13.5179 389.3 13.7781C389.73 14.0482 390.241 14.1833 390.831 14.1833C391.521 14.1833 392.077 13.9732 392.497 13.553C392.927 13.1327 393.142 12.5223 393.142 11.7219V10.3411C392.852 10.7313 392.457 11.0615 391.957 11.3316C391.466 11.5918 390.906 11.7219 390.276 11.7219C389.555 11.7219 388.895 11.5418 388.295 11.1816C387.704 10.8113 387.234 10.301 386.884 9.65066C386.544 8.99028 386.373 8.24484 386.373 7.41435C386.373 6.58386 386.544 5.84843 386.884 5.20806C387.234 4.56768 387.704 4.07239 388.295 3.72218C388.895 3.36197 389.555 3.18187 390.276 3.18187ZM393.142 7.44437C393.142 6.87403 393.022 6.37874 392.782 5.9585C392.552 5.53825 392.247 5.21806 391.867 4.99793C391.486 4.7778 391.076 4.66774 390.636 4.66774C390.196 4.66774 389.785 4.7778 389.405 4.99793C389.025 5.20806 388.715 5.52324 388.475 5.94349C388.245 6.35373 388.129 6.84402 388.129 7.41435C388.129 7.98469 388.245 8.48498 388.475 8.91523C388.715 9.34548 389.025 9.67568 389.405 9.90581C389.795 10.1259 390.206 10.236 390.636 10.236C391.076 10.236 391.486 10.1259 391.867 9.90581C392.247 9.68568 392.552 9.3655 392.782 8.94525C393.022 8.515 393.142 8.0147 393.142 7.44437Z" fill="#F7F7F7" fill-opacity="0.75"/>
<path d="M408.504 3.31695V11.5868H406.793V10.6112C406.523 10.9514 406.168 11.2216 405.727 11.4217C405.297 11.6118 404.837 11.7069 404.346 11.7069C403.696 11.7069 403.111 11.5718 402.59 11.3016C402.08 11.0315 401.675 10.6312 401.375 10.1009C401.085 9.57062 400.939 8.93024 400.939 8.1798V3.31695H402.635V7.92465C402.635 8.66508 402.821 9.23542 403.191 9.63565C403.561 10.0259 404.066 10.221 404.707 10.221C405.347 10.221 405.852 10.0259 406.223 9.63565C406.603 9.23542 406.793 8.66508 406.793 7.92465V3.31695H408.504Z" fill="#F7F7F7" fill-opacity="0.75"/>
<path d="M413.763 11.7219C413.113 11.7219 412.527 11.6068 412.007 11.3767C411.497 11.1365 411.092 10.8163 410.791 10.4161C410.491 10.0059 410.331 9.5506 410.311 9.05031H412.082C412.112 9.40052 412.277 9.69569 412.578 9.93583C412.888 10.166 413.273 10.281 413.733 10.281C414.214 10.281 414.584 10.191 414.844 10.0109C415.114 9.82076 415.249 9.58062 415.249 9.29045C415.249 8.98027 415.099 8.75013 414.799 8.60004C414.509 8.44996 414.043 8.28486 413.403 8.10476C412.783 7.93466 412.277 7.76956 411.887 7.60946C411.497 7.44937 411.157 7.20423 410.867 6.87403C410.586 6.54384 410.446 6.10858 410.446 5.56827C410.446 5.12801 410.576 4.72777 410.837 4.36756C411.097 3.99735 411.467 3.70717 411.947 3.49705C412.437 3.28693 412.998 3.18187 413.628 3.18187C414.569 3.18187 415.324 3.42201 415.894 3.90229C416.475 4.37257 416.785 5.01794 416.825 5.83843H415.114C415.084 5.46821 414.934 5.17304 414.664 4.95291C414.394 4.73278 414.028 4.62271 413.568 4.62271C413.118 4.62271 412.773 4.70776 412.532 4.87786C412.292 5.04796 412.172 5.27309 412.172 5.55326C412.172 5.77339 412.252 5.9585 412.412 6.10858C412.573 6.25867 412.768 6.37874 412.998 6.46879C413.228 6.54884 413.568 6.6539 414.018 6.78398C414.619 6.94407 415.109 7.10917 415.489 7.27927C415.879 7.43936 416.215 7.67951 416.495 7.99969C416.775 8.31988 416.92 8.74513 416.93 9.27544C416.93 9.74572 416.8 10.166 416.54 10.5362C416.28 10.9064 415.91 11.1966 415.429 11.4067C414.959 11.6168 414.404 11.7219 413.763 11.7219Z" fill="#F7F7F7" fill-opacity="0.75"/>
<path d="M426.358 7.24925C426.358 7.55944 426.338 7.8396 426.298 8.08975H419.98C420.03 8.75013 420.275 9.28045 420.715 9.68068C421.155 10.0809 421.696 10.281 422.336 10.281C423.257 10.281 423.907 9.89581 424.287 9.12535H426.133C425.883 9.8858 425.428 10.5112 424.767 11.0015C424.117 11.4817 423.307 11.7219 422.336 11.7219C421.545 11.7219 420.835 11.5468 420.205 11.1966C419.584 10.8364 419.094 10.3361 418.734 9.69569C418.384 9.04531 418.209 8.29487 418.209 7.44437C418.209 6.59387 418.379 5.84843 418.719 5.20806C419.069 4.55767 419.554 4.05738 420.175 3.70717C420.805 3.35697 421.525 3.18187 422.336 3.18187C423.116 3.18187 423.812 3.35197 424.422 3.69217C425.033 4.03237 425.508 4.51265 425.848 5.13301C426.188 5.74337 426.358 6.44878 426.358 7.24925ZM424.572 6.70894C424.562 6.07857 424.337 5.57327 423.897 5.19305C423.457 4.81282 422.911 4.62271 422.261 4.62271C421.671 4.62271 421.165 4.81282 420.745 5.19305C420.325 5.56326 420.075 6.06856 419.995 6.70894H424.572Z" fill="#F7F7F7" fill-opacity="0.75"/>
<path d="M429.753 4.51765C430.003 4.0974 430.333 3.77221 430.744 3.54208C431.164 3.30194 431.659 3.18187 432.23 3.18187V4.95291H431.794C431.124 4.95291 430.614 5.12301 430.263 5.46321C429.923 5.80341 429.753 6.39375 429.753 7.23424V11.5868H428.042V3.31695H429.753V4.51765Z" fill="#F7F7F7" fill-opacity="0.75"/>
<path d="M436.804 11.7219C436.154 11.7219 435.568 11.6068 435.048 11.3767C434.538 11.1365 434.133 10.8163 433.832 10.4161C433.532 10.0059 433.372 9.5506 433.352 9.05031H435.123C435.153 9.40052 435.318 9.69569 435.618 9.93583C435.929 10.166 436.314 10.281 436.774 10.281C437.254 10.281 437.625 10.191 437.885 10.0109C438.155 9.82076 438.29 9.58062 438.29 9.29045C438.29 8.98027 438.14 8.75013 437.84 8.60004C437.55 8.44996 437.084 8.28486 436.444 8.10476C435.824 7.93466 435.318 7.76956 434.928 7.60946C434.538 7.44937 434.198 7.20423 433.907 6.87403C433.627 6.54384 433.487 6.10858 433.487 5.56827C433.487 5.12801 433.617 4.72777 433.877 4.36756C434.138 3.99735 434.508 3.70717 434.988 3.49705C435.478 3.28693 436.039 3.18187 436.669 3.18187C437.61 3.18187 438.365 3.42201 438.935 3.90229C439.516 4.37257 439.826 5.01794 439.866 5.83843H438.155C438.125 5.46821 437.975 5.17304 437.705 4.95291C437.434 4.73278 437.069 4.62271 436.609 4.62271C436.159 4.62271 435.813 4.70776 435.573 4.87786C435.333 5.04796 435.213 5.27309 435.213 5.55326C435.213 5.77339 435.293 5.9585 435.453 6.10858C435.613 6.25867 435.808 6.37874 436.039 6.46879C436.269 6.54884 436.609 6.6539 437.059 6.78398C437.66 6.94407 438.15 7.10917 438.53 7.27927C438.92 7.43936 439.256 7.67951 439.536 7.99969C439.816 8.31988 439.961 8.74513 439.971 9.27544C439.971 9.74572 439.841 10.166 439.581 10.5362C439.321 10.9064 438.95 11.1966 438.47 11.4067C438 11.6168 437.444 11.7219 436.804 11.7219Z" fill="#F7F7F7" fill-opacity="0.75"/>
<path d="M447.715 4.71276V9.29045C447.715 9.60063 447.785 9.82577 447.925 9.96585C448.075 10.0959 448.325 10.161 448.675 10.161H449.726V11.5868H448.375C447.605 11.5868 447.014 11.4067 446.604 11.0465C446.194 10.6863 445.989 10.1009 445.989 9.29045V4.71276H445.013V3.31695H445.989V1.26074H447.715V3.31695H449.726V4.71276H447.715Z" fill="#F7F7F7" fill-opacity="0.75"/>
<path d="M454.89 11.7219C454.109 11.7219 453.404 11.5468 452.774 11.1966C452.143 10.8364 451.648 10.3361 451.288 9.69569C450.928 9.04531 450.748 8.29487 450.748 7.44437C450.748 6.60387 450.933 5.85844 451.303 5.20806C451.673 4.55767 452.178 4.05738 452.819 3.70717C453.459 3.35697 454.175 3.18187 454.965 3.18187C455.755 3.18187 456.471 3.35697 457.111 3.70717C457.752 4.05738 458.257 4.55767 458.627 5.20806C458.997 5.85844 459.182 6.60387 459.182 7.44437C459.182 8.28486 458.992 9.0303 458.612 9.68068C458.232 10.3311 457.712 10.8364 457.051 11.1966C456.401 11.5468 455.68 11.7219 454.89 11.7219ZM454.89 10.236C455.33 10.236 455.74 10.1309 456.121 9.92082C456.511 9.7107 456.826 9.39551 457.066 8.97527C457.306 8.55502 457.426 8.04472 457.426 7.44437C457.426 6.84402 457.311 6.33872 457.081 5.92848C456.851 5.50823 456.546 5.19305 456.166 4.98292C455.785 4.7728 455.375 4.66774 454.935 4.66774C454.495 4.66774 454.084 4.7728 453.704 4.98292C453.334 5.19305 453.039 5.50823 452.819 5.92848C452.599 6.33872 452.489 6.84402 452.489 7.44437C452.489 8.33489 452.714 9.0253 453.164 9.51558C453.624 9.99587 454.2 10.236 454.89 10.236Z" fill="#F7F7F7" fill-opacity="0.75"/>
<path d="M466.484 4.53266C466.774 4.15244 467.169 3.83225 467.669 3.5721C468.17 3.31194 468.735 3.18187 469.365 3.18187C470.086 3.18187 470.741 3.36197 471.331 3.72218C471.932 4.07239 472.402 4.56768 472.742 5.20806C473.083 5.84843 473.253 6.58386 473.253 7.41435C473.253 8.24484 473.083 8.99028 472.742 9.65066C472.402 10.301 471.932 10.8113 471.331 11.1816C470.741 11.5418 470.086 11.7219 469.365 11.7219C468.735 11.7219 468.175 11.5968 467.684 11.3467C467.194 11.0865 466.794 10.7663 466.484 10.3861V15.5191H464.773V3.31695H466.484V4.53266ZM471.512 7.41435C471.512 6.84402 471.392 6.35373 471.151 5.94349C470.921 5.52324 470.611 5.20806 470.221 4.99793C469.841 4.7778 469.43 4.66774 468.99 4.66774C468.56 4.66774 468.15 4.7778 467.759 4.99793C467.379 5.21806 467.069 5.53825 466.829 5.9585C466.599 6.37874 466.484 6.87403 466.484 7.44437C466.484 8.0147 466.599 8.515 466.829 8.94525C467.069 9.3655 467.379 9.68568 467.759 9.90581C468.15 10.1259 468.56 10.236 468.99 10.236C469.43 10.236 469.841 10.1259 470.221 9.90581C470.611 9.67568 470.921 9.34548 471.151 8.91523C471.392 8.48498 471.512 7.98469 471.512 7.41435Z" fill="#F7F7F7" fill-opacity="0.75"/>
<path d="M482.434 3.31695V11.5868H480.723V10.6112C480.453 10.9514 480.098 11.2216 479.657 11.4217C479.227 11.6118 478.767 11.7069 478.277 11.7069C477.626 11.7069 477.041 11.5718 476.521 11.3016C476.01 11.0315 475.605 10.6312 475.305 10.1009C475.015 9.57062 474.87 8.93024 474.87 8.1798V3.31695H476.566V7.92465C476.566 8.66508 476.751 9.23542 477.121 9.63565C477.491 10.0259 477.996 10.221 478.637 10.221C479.277 10.221 479.782 10.0259 480.153 9.63565C480.533 9.23542 480.723 8.66508 480.723 7.92465V3.31695H482.434Z" fill="#F7F7F7" fill-opacity="0.75"/>
<path d="M486.403 4.51765C486.653 4.0974 486.983 3.77221 487.393 3.54208C487.813 3.30194 488.309 3.18187 488.879 3.18187V4.95291H488.444C487.773 4.95291 487.263 5.12301 486.913 5.46321C486.573 5.80341 486.403 6.39375 486.403 7.23424V11.5868H484.692V3.31695H486.403V4.51765Z" fill="#F7F7F7" fill-opacity="0.75"/>
<path d="M489.881 7.44437C489.881 6.59387 490.052 5.84843 490.392 5.20806C490.742 4.55767 491.222 4.05738 491.833 3.70717C492.443 3.35697 493.143 3.18187 493.934 3.18187C494.934 3.18187 495.76 3.42201 496.41 3.90229C497.071 4.37257 497.516 5.04796 497.746 5.92848H495.9C495.75 5.51824 495.51 5.19805 495.18 4.96792C494.849 4.73778 494.434 4.62271 493.934 4.62271C493.233 4.62271 492.673 4.87286 492.253 5.37315C491.843 5.86344 491.637 6.55385 491.637 7.44437C491.637 8.33489 491.843 9.0303 492.253 9.53059C492.673 10.0309 493.233 10.281 493.934 10.281C494.924 10.281 495.58 9.84578 495.9 8.97527H497.746C497.506 9.81576 497.056 10.4862 496.395 10.9864C495.735 11.4767 494.914 11.7219 493.934 11.7219C493.143 11.7219 492.443 11.5468 491.833 11.1966C491.222 10.8364 490.742 10.3361 490.392 9.69569C490.052 9.04531 489.881 8.29487 489.881 7.44437Z" fill="#F7F7F7" fill-opacity="0.75"/>
<path d="M503.729 3.18187C504.359 3.18187 504.919 3.31695 505.41 3.5871C505.91 3.85726 506.3 4.2575 506.58 4.78781C506.871 5.31812 507.016 5.9585 507.016 6.70894V11.5868H505.32V6.96409C505.32 6.22365 505.135 5.65832 504.764 5.26809C504.394 4.86786 503.889 4.66774 503.248 4.66774C502.608 4.66774 502.098 4.86786 501.718 5.26809C501.347 5.65832 501.162 6.22365 501.162 6.96409V11.5868H499.451V0.480282H501.162V4.27751C501.452 3.9273 501.818 3.65715 502.258 3.46703C502.708 3.27692 503.198 3.18187 503.729 3.18187Z" fill="#F7F7F7" fill-opacity="0.75"/>
<path d="M508.628 7.41435C508.628 6.58386 508.798 5.84843 509.138 5.20806C509.488 4.56768 509.959 4.07239 510.549 3.72218C511.149 3.36197 511.81 3.18187 512.53 3.18187C513.18 3.18187 513.746 3.31194 514.226 3.5721C514.716 3.82224 515.107 4.13743 515.397 4.51765V3.31695H517.123V11.5868H515.397V10.3561C515.107 10.7463 514.711 11.0715 514.211 11.3316C513.711 11.5918 513.14 11.7219 512.5 11.7219C511.79 11.7219 511.139 11.5418 510.549 11.1816C509.959 10.8113 509.488 10.301 509.138 9.65066C508.798 8.99028 508.628 8.24484 508.628 7.41435ZM515.397 7.44437C515.397 6.87403 515.277 6.37874 515.037 5.9585C514.806 5.53825 514.501 5.21806 514.121 4.99793C513.741 4.7778 513.331 4.66774 512.89 4.66774C512.45 4.66774 512.04 4.7778 511.66 4.99793C511.279 5.20806 510.969 5.52324 510.729 5.94349C510.499 6.35373 510.384 6.84402 510.384 7.41435C510.384 7.98469 510.499 8.48498 510.729 8.91523C510.969 9.34548 511.279 9.67568 511.66 9.90581C512.05 10.1259 512.46 10.236 512.89 10.236C513.331 10.236 513.741 10.1259 514.121 9.90581C514.501 9.68568 514.806 9.3655 515.037 8.94525C515.277 8.515 515.397 8.0147 515.397 7.44437Z" fill="#F7F7F7" fill-opacity="0.75"/>
<path d="M522.372 11.7219C521.721 11.7219 521.136 11.6068 520.616 11.3767C520.105 11.1365 519.7 10.8163 519.4 10.4161C519.1 10.0059 518.94 9.5506 518.92 9.05031H520.691C520.721 9.40052 520.886 9.69569 521.186 9.93583C521.496 10.166 521.882 10.281 522.342 10.281C522.822 10.281 523.192 10.191 523.452 10.0109C523.723 9.82076 523.858 9.58062 523.858 9.29045C523.858 8.98027 523.708 8.75013 523.407 8.60004C523.117 8.44996 522.652 8.28486 522.012 8.10476C521.391 7.93466 520.886 7.76956 520.496 7.60946C520.105 7.44937 519.765 7.20423 519.475 6.87403C519.195 6.54384 519.055 6.10858 519.055 5.56827C519.055 5.12801 519.185 4.72777 519.445 4.36756C519.705 3.99735 520.076 3.70717 520.556 3.49705C521.046 3.28693 521.606 3.18187 522.237 3.18187C523.177 3.18187 523.933 3.42201 524.503 3.90229C525.083 4.37257 525.394 5.01794 525.434 5.83843H523.723C523.693 5.46821 523.543 5.17304 523.272 4.95291C523.002 4.73278 522.637 4.62271 522.177 4.62271C521.726 4.62271 521.381 4.70776 521.141 4.87786C520.901 5.04796 520.781 5.27309 520.781 5.55326C520.781 5.77339 520.861 5.9585 521.021 6.10858C521.181 6.25867 521.376 6.37874 521.606 6.46879C521.836 6.54884 522.177 6.6539 522.627 6.78398C523.227 6.94407 523.718 7.10917 524.098 7.27927C524.488 7.43936 524.823 7.67951 525.103 7.99969C525.384 8.31988 525.529 8.74513 525.539 9.27544C525.539 9.74572 525.409 10.166 525.148 10.5362C524.888 10.9064 524.518 11.1966 524.038 11.4067C523.568 11.6168 523.012 11.7219 522.372 11.7219Z" fill="#F7F7F7" fill-opacity="0.75"/>
<path d="M534.967 7.24925C534.967 7.55944 534.947 7.8396 534.907 8.08975H528.588C528.638 8.75013 528.883 9.28045 529.324 9.68068C529.764 10.0809 530.304 10.281 530.945 10.281C531.865 10.281 532.515 9.89581 532.896 9.12535H534.742C534.492 9.8858 534.036 10.5112 533.376 11.0015C532.726 11.4817 531.915 11.7219 530.945 11.7219C530.154 11.7219 529.444 11.5468 528.813 11.1966C528.193 10.8364 527.703 10.3361 527.342 9.69569C526.992 9.04531 526.817 8.29487 526.817 7.44437C526.817 6.59387 526.987 5.84843 527.327 5.20806C527.678 4.55767 528.163 4.05738 528.783 3.70717C529.414 3.35697 530.134 3.18187 530.945 3.18187C531.725 3.18187 532.42 3.35197 533.031 3.69217C533.641 4.03237 534.116 4.51265 534.457 5.13301C534.797 5.74337 534.967 6.44878 534.967 7.24925ZM533.181 6.70894C533.171 6.07857 532.946 5.57327 532.505 5.19305C532.065 4.81282 531.52 4.62271 530.87 4.62271C530.279 4.62271 529.774 4.81282 529.354 5.19305C528.933 5.56326 528.683 6.06856 528.603 6.70894H533.181Z" fill="#F7F7F7" fill-opacity="0.75"/>
<path d="M551.656 3.31695L549.089 11.5868H547.288L545.622 5.47821L543.957 11.5868H542.155L539.574 3.31695H541.315L543.041 9.96585L544.797 3.31695H546.583L548.264 9.93583L549.975 3.31695H551.656Z" fill="#F7F7F7" fill-opacity="0.75"/>
<path d="M556.522 11.7219C555.741 11.7219 555.036 11.5468 554.406 11.1966C553.775 10.8364 553.28 10.3361 552.92 9.69569C552.559 9.04531 552.379 8.29487 552.379 7.44437C552.379 6.60387 552.564 5.85844 552.935 5.20806C553.305 4.55767 553.81 4.05738 554.451 3.70717C555.091 3.35697 555.806 3.18187 556.597 3.18187C557.387 3.18187 558.103 3.35697 558.743 3.70717C559.383 4.05738 559.889 4.55767 560.259 5.20806C560.629 5.85844 560.814 6.60387 560.814 7.44437C560.814 8.28486 560.624 9.0303 560.244 9.68068C559.864 10.3311 559.343 10.8364 558.683 11.1966C558.033 11.5468 557.312 11.7219 556.522 11.7219ZM556.522 10.236C556.962 10.236 557.372 10.1309 557.753 9.92082C558.143 9.7107 558.458 9.39551 558.698 8.97527C558.938 8.55502 559.058 8.04472 559.058 7.44437C559.058 6.84402 558.943 6.33872 558.713 5.92848C558.483 5.50823 558.178 5.19305 557.798 4.98292C557.417 4.7728 557.007 4.66774 556.567 4.66774C556.127 4.66774 555.716 4.7728 555.336 4.98292C554.966 5.19305 554.671 5.50823 554.451 5.92848C554.23 6.33872 554.12 6.84402 554.12 7.44437C554.12 8.33489 554.345 9.0253 554.796 9.51558C555.256 9.99587 555.831 10.236 556.522 10.236Z" fill="#F7F7F7" fill-opacity="0.75"/>
<path d="M564.217 4.51765C564.467 4.0974 564.797 3.77221 565.207 3.54208C565.628 3.30194 566.123 3.18187 566.693 3.18187V4.95291H566.258C565.588 4.95291 565.077 5.12301 564.727 5.46321C564.387 5.80341 564.217 6.39375 564.217 7.23424V11.5868H562.506V3.31695H564.217V4.51765Z" fill="#F7F7F7" fill-opacity="0.75"/>
<path d="M569.977 0.480282V11.5868H568.266V0.480282H569.977Z" fill="#F7F7F7" fill-opacity="0.75"/>
<path d="M571.653 7.41435C571.653 6.58386 571.823 5.84843 572.163 5.20806C572.514 4.56768 572.984 4.07239 573.574 3.72218C574.174 3.36197 574.84 3.18187 575.57 3.18187C576.111 3.18187 576.641 3.30194 577.161 3.54208C577.692 3.77221 578.112 4.0824 578.422 4.47262V0.480282H580.148V11.5868H578.422V10.3411C578.142 10.7413 577.752 11.0715 577.251 11.3316C576.761 11.5918 576.196 11.7219 575.555 11.7219C574.835 11.7219 574.174 11.5418 573.574 11.1816C572.984 10.8113 572.514 10.301 572.163 9.65066C571.823 8.99028 571.653 8.24484 571.653 7.41435ZM578.422 7.44437C578.422 6.87403 578.302 6.37874 578.062 5.9585C577.832 5.53825 577.526 5.21806 577.146 4.99793C576.766 4.7778 576.356 4.66774 575.916 4.66774C575.475 4.66774 575.065 4.7778 574.685 4.99793C574.305 5.20806 573.994 5.52324 573.754 5.94349C573.524 6.35373 573.409 6.84402 573.409 7.41435C573.409 7.98469 573.524 8.48498 573.754 8.91523C573.994 9.34548 574.305 9.67568 574.685 9.90581C575.075 10.1259 575.485 10.236 575.916 10.236C576.356 10.236 576.766 10.1259 577.146 9.90581C577.526 9.68568 577.832 9.3655 578.062 8.94525C578.302 8.515 578.422 8.0147 578.422 7.44437Z" fill="#F7F7F7" fill-opacity="0.75"/>
<path d="M588.005 4.51765C588.255 4.0974 588.585 3.77221 588.996 3.54208C589.416 3.30194 589.911 3.18187 590.482 3.18187V4.95291H590.046C589.376 4.95291 588.866 5.12301 588.515 5.46321C588.175 5.80341 588.005 6.39375 588.005 7.23424V11.5868H586.294V3.31695H588.005V4.51765Z" fill="#F7F7F7" fill-opacity="0.75"/>
<path d="M599.634 7.24925C599.634 7.55944 599.614 7.8396 599.574 8.08975H593.255C593.305 8.75013 593.55 9.28045 593.99 9.68068C594.431 10.0809 594.971 10.281 595.611 10.281C596.532 10.281 597.182 9.89581 597.563 9.12535H599.409C599.158 9.8858 598.703 10.5112 598.043 11.0015C597.392 11.4817 596.582 11.7219 595.611 11.7219C594.821 11.7219 594.111 11.5468 593.48 11.1966C592.86 10.8364 592.37 10.3361 592.009 9.69569C591.659 9.04531 591.484 8.29487 591.484 7.44437C591.484 6.59387 591.654 5.84843 591.994 5.20806C592.344 4.55767 592.83 4.05738 593.45 3.70717C594.081 3.35697 594.801 3.18187 595.611 3.18187C596.392 3.18187 597.087 3.35197 597.698 3.69217C598.308 4.03237 598.783 4.51265 599.123 5.13301C599.464 5.74337 599.634 6.44878 599.634 7.24925ZM597.848 6.70894C597.838 6.07857 597.613 5.57327 597.172 5.19305C596.732 4.81282 596.187 4.62271 595.536 4.62271C594.946 4.62271 594.441 4.81282 594.021 5.19305C593.6 5.56326 593.35 6.06856 593.27 6.70894H597.848Z" fill="#F7F7F7" fill-opacity="0.75"/>
<path d="M605.49 3.18187C606.14 3.18187 606.721 3.31695 607.231 3.5871C607.751 3.85726 608.157 4.2575 608.447 4.78781C608.737 5.31812 608.882 5.9585 608.882 6.70894V11.5868H607.186V6.96409C607.186 6.22365 607.001 5.65832 606.631 5.26809C606.26 4.86786 605.755 4.66774 605.115 4.66774C604.474 4.66774 603.964 4.86786 603.584 5.26809C603.214 5.65832 603.029 6.22365 603.029 6.96409V11.5868H601.318V3.31695H603.029V4.2625C603.309 3.9223 603.664 3.65715 604.094 3.46703C604.534 3.27692 605 3.18187 605.49 3.18187Z" fill="#F7F7F7" fill-opacity="0.75"/>
<path d="M614.652 11.7219C613.871 11.7219 613.166 11.5468 612.535 11.1966C611.905 10.8364 611.41 10.3361 611.049 9.69569C610.689 9.04531 610.509 8.29487 610.509 7.44437C610.509 6.60387 610.694 5.85844 611.065 5.20806C611.435 4.55767 611.94 4.05738 612.58 3.70717C613.221 3.35697 613.936 3.18187 614.727 3.18187C615.517 3.18187 616.233 3.35697 616.873 3.70717C617.513 4.05738 618.019 4.55767 618.389 5.20806C618.759 5.85844 618.944 6.60387 618.944 7.44437C618.944 8.28486 618.754 9.0303 618.374 9.68068C617.994 10.3311 617.473 10.8364 616.813 11.1966C616.162 11.5468 615.442 11.7219 614.652 11.7219ZM614.652 10.236C615.092 10.236 615.502 10.1309 615.882 9.92082C616.273 9.7107 616.588 9.39551 616.828 8.97527C617.068 8.55502 617.188 8.04472 617.188 7.44437C617.188 6.84402 617.073 6.33872 616.843 5.92848C616.613 5.50823 616.308 5.19305 615.927 4.98292C615.547 4.7728 615.137 4.66774 614.697 4.66774C614.256 4.66774 613.846 4.7728 613.466 4.98292C613.096 5.19305 612.801 5.50823 612.58 5.92848C612.36 6.33872 612.25 6.84402 612.25 7.44437C612.25 8.33489 612.475 9.0253 612.926 9.51558C613.386 9.99587 613.961 10.236 614.652 10.236Z" fill="#F7F7F7" fill-opacity="0.75"/>
<path d="M631.742 3.31695L629.176 11.5868H627.374L625.709 5.47821L624.043 11.5868H622.241L619.66 3.31695H621.401L623.127 9.96585L624.883 3.31695H626.669L628.35 9.93583L630.061 3.31695H631.742Z" fill="#F7F7F7" fill-opacity="0.75"/>
<path d="M637.193 3.18187C637.844 3.18187 638.424 3.31695 638.934 3.5871C639.455 3.85726 639.86 4.2575 640.15 4.78781C640.44 5.31812 640.585 5.9585 640.585 6.70894V11.5868H638.889V6.96409C638.889 6.22365 638.704 5.65832 638.334 5.26809C637.964 4.86786 637.458 4.66774 636.818 4.66774C636.178 4.66774 635.667 4.86786 635.287 5.26809C634.917 5.65832 634.732 6.22365 634.732 6.96409V11.5868H633.021V3.31695H634.732V4.2625C635.012 3.9223 635.367 3.65715 635.797 3.46703C636.238 3.27692 636.703 3.18187 637.193 3.18187Z" fill="#F7F7F7" fill-opacity="0.75"/>
<path d="M650.347 7.24925C650.347 7.55944 650.327 7.8396 650.287 8.08975H643.968C644.018 8.75013 644.264 9.28045 644.704 9.68068C645.144 10.0809 645.684 10.281 646.325 10.281C647.245 10.281 647.896 9.89581 648.276 9.12535H650.122C649.872 9.8858 649.417 10.5112 648.756 11.0015C648.106 11.4817 647.295 11.7219 646.325 11.7219C645.534 11.7219 644.824 11.5468 644.193 11.1966C643.573 10.8364 643.083 10.3361 642.723 9.69569C642.372 9.04531 642.197 8.29487 642.197 7.44437C642.197 6.59387 642.367 5.84843 642.708 5.20806C643.058 4.55767 643.543 4.05738 644.164 3.70717C644.794 3.35697 645.514 3.18187 646.325 3.18187C647.105 3.18187 647.801 3.35197 648.411 3.69217C649.021 4.03237 649.497 4.51265 649.837 5.13301C650.177 5.74337 650.347 6.44878 650.347 7.24925ZM648.561 6.70894C648.551 6.07857 648.326 5.57327 647.886 5.19305C647.445 4.81282 646.9 4.62271 646.25 4.62271C645.659 4.62271 645.154 4.81282 644.734 5.19305C644.314 5.56326 644.063 6.06856 643.983 6.70894H648.561Z" fill="#F7F7F7" fill-opacity="0.75"/>
<path d="M651.461 7.41435C651.461 6.58386 651.631 5.84843 651.971 5.20806C652.321 4.56768 652.791 4.07239 653.382 3.72218C653.982 3.36197 654.647 3.18187 655.378 3.18187C655.918 3.18187 656.448 3.30194 656.969 3.54208C657.499 3.77221 657.919 4.0824 658.23 4.47262V0.480282H659.956V11.5868H658.23V10.3411C657.949 10.7413 657.559 11.0715 657.059 11.3316C656.569 11.5918 656.003 11.7219 655.363 11.7219C654.642 11.7219 653.982 11.5418 653.382 11.1816C652.791 10.8113 652.321 10.301 651.971 9.65066C651.631 8.99028 651.461 8.24484 651.461 7.41435ZM658.23 7.44437C658.23 6.87403 658.109 6.37874 657.869 5.9585C657.639 5.53825 657.334 5.21806 656.954 4.99793C656.574 4.7778 656.163 4.66774 655.723 4.66774C655.283 4.66774 654.873 4.7778 654.492 4.99793C654.112 5.20806 653.802 5.52324 653.562 5.94349C653.332 6.35373 653.217 6.84402 653.217 7.41435C653.217 7.98469 653.332 8.48498 653.562 8.91523C653.802 9.34548 654.112 9.67568 654.492 9.90581C654.883 10.1259 655.293 10.236 655.723 10.236C656.163 10.236 656.574 10.1259 656.954 9.90581C657.334 9.68568 657.639 9.3655 657.869 8.94525C658.109 8.515 658.23 8.0147 658.23 7.44437Z" fill="#F7F7F7" fill-opacity="0.75"/>
<path d="M668.098 4.71276V9.29045C668.098 9.60063 668.168 9.82577 668.308 9.96585C668.458 10.0959 668.708 10.161 669.058 10.161H670.109V11.5868H668.758C667.988 11.5868 667.397 11.4067 666.987 11.0465C666.577 10.6863 666.372 10.1009 666.372 9.29045V4.71276H665.396V3.31695H666.372V1.26074H668.098V3.31695H670.109V4.71276H668.098Z" fill="#F7F7F7" fill-opacity="0.75"/>
<path d="M671.116 7.41435C671.116 6.58386 671.286 5.84843 671.626 5.20806C671.976 4.56768 672.446 4.07239 673.037 3.72218C673.637 3.36197 674.298 3.18187 675.018 3.18187C675.668 3.18187 676.234 3.31194 676.714 3.5721C677.204 3.82224 677.595 4.13743 677.885 4.51765V3.31695H679.611V11.5868H677.885V10.3561C677.595 10.7463 677.199 11.0715 676.699 11.3316C676.199 11.5918 675.628 11.7219 674.988 11.7219C674.277 11.7219 673.627 11.5418 673.037 11.1816C672.446 10.8113 671.976 10.301 671.626 9.65066C671.286 8.99028 671.116 8.24484 671.116 7.41435ZM677.885 7.44437C677.885 6.87403 677.765 6.37874 677.524 5.9585C677.294 5.53825 676.989 5.21806 676.609 4.99793C676.229 4.7778 675.818 4.66774 675.378 4.66774C674.938 4.66774 674.528 4.7778 674.147 4.99793C673.767 5.20806 673.457 5.52324 673.217 5.94349C672.987 6.35373 672.872 6.84402 672.872 7.41435C672.872 7.98469 672.987 8.48498 673.217 8.91523C673.457 9.34548 673.767 9.67568 674.147 9.90581C674.538 10.1259 674.948 10.236 675.378 10.236C675.818 10.236 676.229 10.1259 676.609 9.90581C676.989 9.68568 677.294 9.3655 677.524 8.94525C677.765 8.515 677.885 8.0147 677.885 7.44437Z" fill="#F7F7F7" fill-opacity="0.75"/>
<path d="M681.288 7.44437C681.288 6.59387 681.458 5.84843 681.798 5.20806C682.148 4.55767 682.628 4.05738 683.239 3.70717C683.849 3.35697 684.55 3.18187 685.34 3.18187C686.341 3.18187 687.166 3.42201 687.817 3.90229C688.477 4.37257 688.922 5.04796 689.152 5.92848H687.306C687.156 5.51824 686.916 5.19805 686.586 4.96792C686.256 4.73778 685.84 4.62271 685.34 4.62271C684.64 4.62271 684.079 4.87286 683.659 5.37315C683.249 5.86344 683.044 6.55385 683.044 7.44437C683.044 8.33489 683.249 9.0303 683.659 9.53059C684.079 10.0309 684.64 10.281 685.34 10.281C686.331 10.281 686.986 9.84578 687.306 8.97527H689.152C688.912 9.81576 688.462 10.4862 687.801 10.9864C687.141 11.4767 686.321 11.7219 685.34 11.7219C684.55 11.7219 683.849 11.5468 683.239 11.1966C682.628 10.8364 682.148 10.3361 681.798 9.69569C681.458 9.04531 681.288 8.29487 681.288 7.44437Z" fill="#F7F7F7" fill-opacity="0.75"/>
<path d="M694.445 11.7219C693.664 11.7219 692.959 11.5468 692.328 11.1966C691.698 10.8364 691.203 10.3361 690.842 9.69569C690.482 9.04531 690.302 8.29487 690.302 7.44437C690.302 6.60387 690.487 5.85844 690.857 5.20806C691.228 4.55767 691.733 4.05738 692.373 3.70717C693.014 3.35697 693.729 3.18187 694.52 3.18187C695.31 3.18187 696.025 3.35697 696.666 3.70717C697.306 4.05738 697.812 4.55767 698.182 5.20806C698.552 5.85844 698.737 6.60387 698.737 7.44437C698.737 8.28486 698.547 9.0303 698.167 9.68068C697.786 10.3311 697.266 10.8364 696.606 11.1966C695.955 11.5468 695.235 11.7219 694.445 11.7219ZM694.445 10.236C694.885 10.236 695.295 10.1309 695.675 9.92082C696.065 9.7107 696.381 9.39551 696.621 8.97527C696.861 8.55502 696.981 8.04472 696.981 7.44437C696.981 6.84402 696.866 6.33872 696.636 5.92848C696.406 5.50823 696.1 5.19305 695.72 4.98292C695.34 4.7728 694.93 4.66774 694.49 4.66774C694.049 4.66774 693.639 4.7728 693.259 4.98292C692.889 5.19305 692.593 5.50823 692.373 5.92848C692.153 6.33872 692.043 6.84402 692.043 7.44437C692.043 8.33489 692.268 9.0253 692.718 9.51558C693.179 9.99587 693.754 10.236 694.445 10.236Z" fill="#F7F7F7" fill-opacity="0.75"/>
<path d="M703.43 11.7219C702.78 11.7219 702.195 11.6068 701.674 11.3767C701.164 11.1365 700.759 10.8163 700.459 10.4161C700.158 10.0059 699.998 9.5506 699.978 9.05031H701.749C701.779 9.40052 701.944 9.69569 702.245 9.93583C702.555 10.166 702.94 10.281 703.4 10.281C703.88 10.281 704.251 10.191 704.511 10.0109C704.781 9.82076 704.916 9.58062 704.916 9.29045C704.916 8.98027 704.766 8.75013 704.466 8.60004C704.176 8.44996 703.71 8.28486 703.07 8.10476C702.45 7.93466 701.944 7.76956 701.554 7.60946C701.164 7.44937 700.824 7.20423 700.533 6.87403C700.253 6.54384 700.113 6.10858 700.113 5.56827C700.113 5.12801 700.243 4.72777 700.504 4.36756C700.764 3.99735 701.134 3.70717 701.614 3.49705C702.104 3.28693 702.665 3.18187 703.295 3.18187C704.236 3.18187 704.991 3.42201 705.561 3.90229C706.142 4.37257 706.452 5.01794 706.492 5.83843H704.781C704.751 5.46821 704.601 5.17304 704.331 4.95291C704.061 4.73278 703.695 4.62271 703.235 4.62271C702.785 4.62271 702.44 4.70776 702.2 4.87786C701.959 5.04796 701.839 5.27309 701.839 5.55326C701.839 5.77339 701.919 5.9585 702.079 6.10858C702.24 6.25867 702.435 6.37874 702.665 6.46879C702.895 6.54884 703.235 6.6539 703.685 6.78398C704.286 6.94407 704.776 7.10917 705.156 7.27927C705.546 7.43936 705.882 7.67951 706.162 7.99969C706.442 8.31988 706.587 8.74513 706.597 9.27544C706.597 9.74572 706.467 10.166 706.207 10.5362C705.947 10.9064 705.576 11.1966 705.096 11.4067C704.626 11.6168 704.071 11.7219 703.43 11.7219Z" fill="#F7F7F7" fill-opacity="0.75"/>
<path d="M723.451 3.31695L720.885 11.5868H719.084L717.418 5.47821L715.752 11.5868H713.951L711.369 3.31695H713.11L714.836 9.96585L716.592 3.31695H718.378L720.059 9.93583L721.77 3.31695H723.451Z" fill="#F7F7F7" fill-opacity="0.75"/>
<path d="M725.6 2.2213C725.29 2.2213 725.03 2.11624 724.82 1.90612C724.61 1.696 724.505 1.43584 724.505 1.12566C724.505 0.815478 724.61 0.555326 724.82 0.345203C725.03 0.135079 725.29 0.0300173 725.6 0.0300173C725.9 0.0300173 726.156 0.135079 726.366 0.345203C726.576 0.555326 726.681 0.815478 726.681 1.12566C726.681 1.43584 726.576 1.696 726.366 1.90612C726.156 2.11624 725.9 2.2213 725.6 2.2213ZM726.441 3.31695V11.5868H724.73V3.31695H726.441Z" fill="#F7F7F7" fill-opacity="0.75"/>
<path d="M730.683 4.71276V9.29045C730.683 9.60063 730.753 9.82577 730.894 9.96585C731.044 10.0959 731.294 10.161 731.644 10.161H732.695V11.5868H731.344C730.573 11.5868 729.983 11.4067 729.573 11.0465C729.163 10.6863 728.957 10.1009 728.957 9.29045V4.71276H727.982V3.31695H728.957V1.26074H730.683V3.31695H732.695V4.71276H730.683Z" fill="#F7F7F7" fill-opacity="0.75"/>
<path d="M738.549 3.18187C739.179 3.18187 739.74 3.31695 740.23 3.5871C740.73 3.85726 741.121 4.2575 741.401 4.78781C741.691 5.31812 741.836 5.9585 741.836 6.70894V11.5868H740.14V6.96409C740.14 6.22365 739.955 5.65832 739.585 5.26809C739.214 4.86786 738.709 4.66774 738.069 4.66774C737.428 4.66774 736.918 4.86786 736.538 5.26809C736.168 5.65832 735.983 6.22365 735.983 6.96409V11.5868H734.272V0.480282H735.983V4.27751C736.273 3.9273 736.638 3.65715 737.078 3.46703C737.528 3.27692 738.019 3.18187 738.549 3.18187Z" fill="#F7F7F7" fill-opacity="0.75"/>
<path d="M749.913 4.71276V9.29045C749.913 9.60063 749.983 9.82577 750.124 9.96585C750.274 10.0959 750.524 10.161 750.874 10.161H751.925V11.5868H750.574C749.803 11.5868 749.213 11.4067 748.803 11.0465C748.393 10.6863 748.187 10.1009 748.187 9.29045V4.71276H747.212V3.31695H748.187V1.26074H749.913V3.31695H751.925V4.71276H749.913Z" fill="#F7F7F7" fill-opacity="0.75"/>
<path d="M757.779 3.18187C758.409 3.18187 758.97 3.31695 759.46 3.5871C759.96 3.85726 760.351 4.2575 760.631 4.78781C760.921 5.31812 761.066 5.9585 761.066 6.70894V11.5868H759.37V6.96409C759.37 6.22365 759.185 5.65832 758.815 5.26809C758.444 4.86786 757.939 4.66774 757.299 4.66774C756.658 4.66774 756.148 4.86786 755.768 5.26809C755.398 5.65832 755.213 6.22365 755.213 6.96409V11.5868H753.502V0.480282H755.213V4.27751C755.503 3.9273 755.868 3.65715 756.308 3.46703C756.759 3.27692 757.249 3.18187 757.779 3.18187Z" fill="#F7F7F7" fill-opacity="0.75"/>
<path d="M770.828 7.24925C770.828 7.55944 770.808 7.8396 770.768 8.08975H764.449C764.499 8.75013 764.744 9.28045 765.185 9.68068C765.625 10.0809 766.165 10.281 766.806 10.281C767.726 10.281 768.377 9.89581 768.757 9.12535H770.603C770.353 9.8858 769.897 10.5112 769.237 11.0015C768.587 11.4817 767.776 11.7219 766.806 11.7219C766.015 11.7219 765.305 11.5468 764.674 11.1966C764.054 10.8364 763.564 10.3361 763.204 9.69569C762.853 9.04531 762.678 8.29487 762.678 7.44437C762.678 6.59387 762.848 5.84843 763.188 5.20806C763.539 4.55767 764.024 4.05738 764.644 3.70717C765.275 3.35697 765.995 3.18187 766.806 3.18187C767.586 3.18187 768.281 3.35197 768.892 3.69217C769.502 4.03237 769.977 4.51265 770.318 5.13301C770.658 5.74337 770.828 6.44878 770.828 7.24925ZM769.042 6.70894C769.032 6.07857 768.807 5.57327 768.367 5.19305C767.926 4.81282 767.381 4.62271 766.731 4.62271C766.14 4.62271 765.635 4.81282 765.215 5.19305C764.794 5.56326 764.544 6.06856 764.464 6.70894H769.042Z" fill="#F7F7F7" fill-opacity="0.75"/>
<path d="M778.407 4.71276V9.29045C778.407 9.60063 778.477 9.82577 778.617 9.96585C778.767 10.0959 779.017 10.161 779.367 10.161H780.418V11.5868H779.067C778.297 11.5868 777.706 11.4067 777.296 11.0465C776.886 10.6863 776.681 10.1009 776.681 9.29045V4.71276H775.705V3.31695H776.681V1.26074H778.407V3.31695H780.418V4.71276H778.407Z" fill="#F7F7F7" fill-opacity="0.75"/>
<path d="M785.582 11.7219C784.802 11.7219 784.096 11.5468 783.466 11.1966C782.835 10.8364 782.34 10.3361 781.98 9.69569C781.62 9.04531 781.44 8.29487 781.44 7.44437C781.44 6.60387 781.625 5.85844 781.995 5.20806C782.365 4.55767 782.87 4.05738 783.511 3.70717C784.151 3.35697 784.867 3.18187 785.657 3.18187C786.447 3.18187 787.163 3.35697 787.803 3.70717C788.444 4.05738 788.949 4.55767 789.319 5.20806C789.689 5.85844 789.874 6.60387 789.874 7.44437C789.874 8.28486 789.684 9.0303 789.304 9.68068C788.924 10.3311 788.404 10.8364 787.743 11.1966C787.093 11.5468 786.372 11.7219 785.582 11.7219ZM785.582 10.236C786.022 10.236 786.432 10.1309 786.813 9.92082C787.203 9.7107 787.518 9.39551 787.758 8.97527C787.998 8.55502 788.118 8.04472 788.118 7.44437C788.118 6.84402 788.003 6.33872 787.773 5.92848C787.543 5.50823 787.238 5.19305 786.858 4.98292C786.477 4.7728 786.067 4.66774 785.627 4.66774C785.187 4.66774 784.777 4.7728 784.396 4.98292C784.026 5.19305 783.731 5.50823 783.511 5.92848C783.291 6.33872 783.181 6.84402 783.181 7.44437C783.181 8.33489 783.406 9.0253 783.856 9.51558C784.316 9.99587 784.892 10.236 785.582 10.236Z" fill="#F7F7F7" fill-opacity="0.75"/>
<path d="M794.838 7.45938L798.65 11.5868H796.339L793.277 8.02971V11.5868H791.566V0.480282H793.277V6.93407L796.279 3.31695H798.65L794.838 7.45938Z" fill="#F7F7F7" fill-opacity="0.75"/>
<path d="M807.456 7.24925C807.456 7.55944 807.436 7.8396 807.396 8.08975H801.077C801.127 8.75013 801.372 9.28045 801.813 9.68068C802.253 10.0809 802.793 10.281 803.434 10.281C804.354 10.281 805.004 9.89581 805.385 9.12535H807.231C806.981 9.8858 806.525 10.5112 805.865 11.0015C805.215 11.4817 804.404 11.7219 803.434 11.7219C802.643 11.7219 801.933 11.5468 801.302 11.1966C800.682 10.8364 800.192 10.3361 799.831 9.69569C799.481 9.04531 799.306 8.29487 799.306 7.44437C799.306 6.59387 799.476 5.84843 799.816 5.20806C800.167 4.55767 800.652 4.05738 801.272 3.70717C801.903 3.35697 802.623 3.18187 803.434 3.18187C804.214 3.18187 804.909 3.35197 805.52 3.69217C806.13 4.03237 806.605 4.51265 806.946 5.13301C807.286 5.74337 807.456 6.44878 807.456 7.24925ZM805.67 6.70894C805.66 6.07857 805.435 5.57327 804.994 5.19305C804.554 4.81282 804.009 4.62271 803.358 4.62271C802.768 4.62271 802.263 4.81282 801.843 5.19305C801.422 5.56326 801.172 6.06856 801.092 6.70894H805.67Z" fill="#F7F7F7" fill-opacity="0.75"/>
<path d="M813.312 3.18187C813.963 3.18187 814.543 3.31695 815.053 3.5871C815.573 3.85726 815.979 4.2575 816.269 4.78781C816.559 5.31812 816.704 5.9585 816.704 6.70894V11.5868H815.008V6.96409C815.008 6.22365 814.823 5.65832 814.453 5.26809C814.083 4.86786 813.577 4.66774 812.937 4.66774C812.297 4.66774 811.786 4.86786 811.406 5.26809C811.036 5.65832 810.851 6.22365 810.851 6.96409V11.5868H809.14V3.31695H810.851V4.2625C811.131 3.9223 811.486 3.65715 811.916 3.46703C812.357 3.27692 812.822 3.18187 813.312 3.18187Z" fill="#F7F7F7" fill-opacity="0.75"/>
<path d="M820.763 9.53059L818.947 13.673H817.836L818.902 9.53059H820.763Z" fill="#F7F7F7" fill-opacity="0.75"/>
<path d="M825.586 7.41435C825.586 6.58386 825.756 5.84843 826.096 5.20806C826.447 4.56768 826.917 4.07239 827.507 3.72218C828.108 3.36197 828.768 3.18187 829.488 3.18187C830.139 3.18187 830.704 3.31194 831.184 3.5721C831.675 3.82224 832.065 4.13743 832.355 4.51765V3.31695H834.081V11.5868H832.355V10.3561C832.065 10.7463 831.67 11.0715 831.169 11.3316C830.669 11.5918 830.099 11.7219 829.458 11.7219C828.748 11.7219 828.098 11.5418 827.507 11.1816C826.917 10.8113 826.447 10.301 826.096 9.65066C825.756 8.99028 825.586 8.24484 825.586 7.41435ZM832.355 7.44437C832.355 6.87403 832.235 6.37874 831.995 5.9585C831.765 5.53825 831.46 5.21806 831.079 4.99793C830.699 4.7778 830.289 4.66774 829.849 4.66774C829.408 4.66774 828.998 4.7778 828.618 4.99793C828.238 5.20806 827.928 5.52324 827.687 5.94349C827.457 6.35373 827.342 6.84402 827.342 7.41435C827.342 7.98469 827.457 8.48498 827.687 8.91523C827.928 9.34548 828.238 9.67568 828.618 9.90581C829.008 10.1259 829.418 10.236 829.849 10.236C830.289 10.236 830.699 10.1259 831.079 9.90581C831.46 9.68568 831.765 9.3655 831.995 8.94525C832.235 8.515 832.355 8.0147 832.355 7.44437Z" fill="#F7F7F7" fill-opacity="0.75"/>
<path d="M840.501 3.18187C841.151 3.18187 841.732 3.31695 842.242 3.5871C842.762 3.85726 843.168 4.2575 843.458 4.78781C843.748 5.31812 843.893 5.9585 843.893 6.70894V11.5868H842.197V6.96409C842.197 6.22365 842.012 5.65832 841.642 5.26809C841.271 4.86786 840.766 4.66774 840.126 4.66774C839.485 4.66774 838.975 4.86786 838.595 5.26809C838.225 5.65832 838.04 6.22365 838.04 6.96409V11.5868H836.328V3.31695H838.04V4.2625C838.32 3.9223 838.675 3.65715 839.105 3.46703C839.545 3.27692 840.011 3.18187 840.501 3.18187Z" fill="#F7F7F7" fill-opacity="0.75"/>
<path d="M845.505 7.41435C845.505 6.58386 845.675 5.84843 846.015 5.20806C846.366 4.56768 846.836 4.07239 847.426 3.72218C848.027 3.36197 848.692 3.18187 849.422 3.18187C849.963 3.18187 850.493 3.30194 851.013 3.54208C851.544 3.77221 851.964 4.0824 852.274 4.47262V0.480282H854V11.5868H852.274V10.3411C851.994 10.7413 851.604 11.0715 851.103 11.3316C850.613 11.5918 850.048 11.7219 849.407 11.7219C848.687 11.7219 848.027 11.5418 847.426 11.1816C846.836 10.8113 846.366 10.301 846.015 9.65066C845.675 8.99028 845.505 8.24484 845.505 7.41435ZM852.274 7.44437C852.274 6.87403 852.154 6.37874 851.914 5.9585C851.684 5.53825 851.379 5.21806 850.998 4.99793C850.618 4.7778 850.208 4.66774 849.768 4.66774C849.327 4.66774 848.917 4.7778 848.537 4.99793C848.157 5.20806 847.846 5.52324 847.606 5.94349C847.376 6.35373 847.261 6.84402 847.261 7.41435C847.261 7.98469 847.376 8.48498 847.606 8.91523C847.846 9.34548 848.157 9.67568 848.537 9.90581C848.927 10.1259 849.337 10.236 849.768 10.236C850.208 10.236 850.618 10.1259 850.998 9.90581C851.379 9.68568 851.684 9.3655 851.914 8.94525C852.154 8.515 852.274 8.0147 852.274 7.44437Z" fill="#F7F7F7" fill-opacity="0.75"/>
<path d="M2.25132 27.5312C2.50147 27.1109 2.83166 26.7857 3.2419 26.5556C3.66215 26.3154 4.15744 26.1954 4.72777 26.1954V27.9664H4.29252C3.62213 27.9664 3.11183 28.1365 2.76162 28.4767C2.42142 28.8169 2.25132 29.4073 2.25132 30.2477V34.6003H0.540317V26.3304H2.25132V27.5312Z" fill="#F7F7F7" fill-opacity="0.75"/>
<path d="M13.88 30.2628C13.88 30.5729 13.86 30.8531 13.8199 31.1032H7.50124C7.55127 31.7636 7.79641 32.2939 8.23667 32.6942C8.67693 33.0944 9.21724 33.2945 9.85762 33.2945C10.7782 33.2945 11.4285 32.9093 11.8088 32.1389H13.6548C13.4047 32.8993 12.9494 33.5247 12.289 34.015C11.6387 34.4952 10.8282 34.7354 9.85762 34.7354C9.06716 34.7354 8.35674 34.5603 7.72637 34.2101C7.10601 33.8499 6.61572 33.3496 6.25551 32.7092C5.9053 32.0588 5.7302 31.3084 5.7302 30.4579C5.7302 29.6074 5.9003 28.8619 6.2405 28.2216C6.5907 27.5712 7.07599 27.0709 7.69635 26.7207C8.32672 26.3705 9.04714 26.1954 9.85762 26.1954C10.6381 26.1954 11.3335 26.3655 11.9438 26.7057C12.5542 27.0459 13.0295 27.5261 13.3697 28.1465C13.7099 28.7569 13.88 29.4623 13.88 30.2628ZM12.0939 29.7224C12.0839 29.0921 11.8588 28.5868 11.4185 28.2065C10.9783 27.8263 10.433 27.6362 9.78258 27.6362C9.19223 27.6362 8.68693 27.8263 8.26669 28.2065C7.84644 28.5768 7.59629 29.0821 7.51625 29.7224H12.0939Z" fill="#F7F7F7" fill-opacity="0.75"/>
<path d="M26.6703 26.3304L24.1038 34.6003H22.3027L20.6368 28.4917L18.9708 34.6003H17.1697L14.5882 26.3304H16.3292L18.0552 32.9794L19.8113 26.3304H21.5973L23.2783 32.9493L24.9893 26.3304H26.6703Z" fill="#F7F7F7" fill-opacity="0.75"/>
<path d="M27.3786 30.4278C27.3786 29.5974 27.5487 28.8619 27.8889 28.2216C28.2391 27.5812 28.7094 27.0859 29.2998 26.7357C29.9001 26.3755 30.5605 26.1954 31.2809 26.1954C31.9313 26.1954 32.4966 26.3254 32.9769 26.5856C33.4672 26.8357 33.8574 27.1509 34.1476 27.5312V26.3304H35.8736V34.6003H34.1476V33.3696C33.8574 33.7598 33.4622 34.085 32.9619 34.3452C32.4616 34.6053 31.8913 34.7354 31.2509 34.7354C30.5405 34.7354 29.8901 34.5553 29.2998 34.1951C28.7094 33.8248 28.2391 33.3145 27.8889 32.6642C27.5487 32.0038 27.3786 31.2583 27.3786 30.4278ZM34.1476 30.4579C34.1476 29.8875 34.0275 29.3922 33.7874 28.972C33.5573 28.5518 33.2521 28.2316 32.8719 28.0114C32.4916 27.7913 32.0814 27.6812 31.6411 27.6812C31.2009 27.6812 30.7906 27.7913 30.4104 28.0114C30.0302 28.2216 29.72 28.5367 29.4799 28.957C29.2497 29.3672 29.1347 29.8575 29.1347 30.4278C29.1347 30.9982 29.2497 31.4985 29.4799 31.9287C29.72 32.359 30.0302 32.6892 30.4104 32.9193C30.8006 33.1394 31.2109 33.2495 31.6411 33.2495C32.0814 33.2495 32.4916 33.1394 32.8719 32.9193C33.2521 32.6992 33.5573 32.379 33.7874 31.9588C34.0275 31.5285 34.1476 31.0282 34.1476 30.4579Z" fill="#F7F7F7" fill-opacity="0.75"/>
<path d="M39.832 27.5312C40.0821 27.1109 40.4123 26.7857 40.8225 26.5556C41.2428 26.3154 41.7381 26.1954 42.3084 26.1954V27.9664H41.8732C41.2028 27.9664 40.6925 28.1365 40.3423 28.4767C40.0021 28.8169 39.832 29.4073 39.832 30.2477V34.6003H38.121V26.3304H39.832V27.5312Z" fill="#F7F7F7" fill-opacity="0.75"/>
<path d="M43.3108 30.4278C43.3108 29.5974 43.4809 28.8619 43.8211 28.2216C44.1713 27.5812 44.6416 27.0859 45.232 26.7357C45.8323 26.3755 46.4977 26.1954 47.2281 26.1954C47.7685 26.1954 48.2988 26.3154 48.8191 26.5556C49.3494 26.7857 49.7696 27.0959 50.0798 27.4861V23.4938H51.8058V34.6003H50.0798V33.3546C49.7996 33.7548 49.4094 34.085 48.9091 34.3452C48.4188 34.6053 47.8535 34.7354 47.2131 34.7354C46.4927 34.7354 45.8323 34.5553 45.232 34.1951C44.6416 33.8248 44.1713 33.3145 43.8211 32.6642C43.4809 32.0038 43.3108 31.2583 43.3108 30.4278ZM50.0798 30.4579C50.0798 29.8875 49.9597 29.3922 49.7196 28.972C49.4895 28.5518 49.1843 28.2316 48.8041 28.0114C48.4238 27.7913 48.0136 27.6812 47.5733 27.6812C47.1331 27.6812 46.7228 27.7913 46.3426 28.0114C45.9624 28.2216 45.6522 28.5367 45.4121 28.957C45.1819 29.3672 45.0669 29.8575 45.0669 30.4278C45.0669 30.9982 45.1819 31.4985 45.4121 31.9287C45.6522 32.359 45.9624 32.6892 46.3426 32.9193C46.7328 33.1394 47.1431 33.2495 47.5733 33.2495C48.0136 33.2495 48.4238 33.1394 48.8041 32.9193C49.1843 32.6992 49.4895 32.379 49.7196 31.9588C49.9597 31.5285 50.0798 31.0282 50.0798 30.4579Z" fill="#F7F7F7" fill-opacity="0.75"/>
<path d="M54.9237 25.2348C54.6135 25.2348 54.3533 25.1297 54.1432 24.9196C53.9331 24.7095 53.828 24.4493 53.828 24.1392C53.828 23.829 53.9331 23.5688 54.1432 23.3587C54.3533 23.1486 54.6135 23.0435 54.9237 23.0435C55.2238 23.0435 55.479 23.1486 55.6891 23.3587C55.8992 23.5688 56.0043 23.829 56.0043 24.1392C56.0043 24.4493 55.8992 24.7095 55.6891 24.9196C55.479 25.1297 55.2238 25.2348 54.9237 25.2348ZM55.7642 26.3304V34.6003H54.0532V26.3304H55.7642Z" fill="#F7F7F7" fill-opacity="0.75"/>
<path d="M62.183 26.1954C62.8334 26.1954 63.4137 26.3305 63.924 26.6006C64.4443 26.8708 64.8496 27.271 65.1397 27.8013C65.4299 28.3316 65.575 28.972 65.575 29.7224V34.6003H63.879V29.9776C63.879 29.2372 63.6939 28.6718 63.3237 28.2816C62.9535 27.8814 62.4482 27.6812 61.8078 27.6812C61.1674 27.6812 60.6571 27.8814 60.2769 28.2816C59.9067 28.6718 59.7216 29.2372 59.7216 29.9776V34.6003H58.0106V26.3304H59.7216V27.276C60.0017 26.9358 60.3569 26.6706 60.7872 26.4805C61.2274 26.2904 61.6927 26.1954 62.183 26.1954Z" fill="#F7F7F7" fill-opacity="0.75"/>
<path d="M71.0894 26.1954C71.7298 26.1954 72.2952 26.3254 72.7854 26.5856C73.2857 26.8357 73.676 27.1509 73.9561 27.5312V26.3304H75.6821V34.7354C75.6821 35.4958 75.522 36.1712 75.2019 36.7616C74.8817 37.3619 74.4164 37.8322 73.806 38.1724C73.2057 38.5126 72.4853 38.6827 71.6448 38.6827C70.5241 38.6827 69.5936 38.4175 68.8531 37.8872C68.1127 37.3669 67.6924 36.6565 67.5924 35.756H69.2884C69.4185 36.1862 69.6936 36.5314 70.1139 36.7916C70.5441 37.0617 71.0544 37.1968 71.6448 37.1968C72.3352 37.1968 72.8905 36.9867 73.3107 36.5665C73.741 36.1462 73.9561 35.5358 73.9561 34.7354V33.3546C73.666 33.7448 73.2707 34.075 72.7704 34.3452C72.2801 34.6053 71.7198 34.7354 71.0894 34.7354C70.369 34.7354 69.7086 34.5553 69.1083 34.1951C68.5179 33.8248 68.0477 33.3145 67.6975 32.6642C67.3573 32.0038 67.1872 31.2583 67.1872 30.4278C67.1872 29.5974 67.3573 28.8619 67.6975 28.2216C68.0477 27.5812 68.5179 27.0859 69.1083 26.7357C69.7086 26.3755 70.369 26.1954 71.0894 26.1954ZM73.9561 30.4579C73.9561 29.8875 73.8361 29.3922 73.5959 28.972C73.3658 28.5518 73.0606 28.2316 72.6804 28.0114C72.3002 27.7913 71.8899 27.6812 71.4497 27.6812C71.0094 27.6812 70.5992 27.7913 70.2189 28.0114C69.8387 28.2216 69.5285 28.5367 69.2884 28.957C69.0582 29.3672 68.9432 29.8575 68.9432 30.4278C68.9432 30.9982 69.0582 31.4985 69.2884 31.9287C69.5285 32.359 69.8387 32.6892 70.2189 32.9193C70.6092 33.1394 71.0194 33.2495 71.4497 33.2495C71.8899 33.2495 72.3002 33.1394 72.6804 32.9193C73.0606 32.6992 73.3658 32.379 73.5959 31.9588C73.8361 31.5285 73.9561 31.0282 73.9561 30.4579Z" fill="#F7F7F7" fill-opacity="0.75"/>
<path d="M83.5392 23.4938V34.6003H81.8282V23.4938H83.5392Z" fill="#F7F7F7" fill-opacity="0.75"/>
<path d="M89.3727 34.7354C88.5923 34.7354 87.8869 34.5603 87.2565 34.2101C86.6261 33.8499 86.1308 33.3496 85.7706 32.7092C85.4104 32.0588 85.2303 31.3084 85.2303 30.4579C85.2303 29.6174 85.4154 28.8719 85.7856 28.2216C86.1559 27.5712 86.6612 27.0709 87.3015 26.7207C87.9419 26.3705 88.6573 26.1954 89.4478 26.1954C90.2383 26.1954 90.9537 26.3705 91.5941 26.7207C92.2344 27.0709 92.7397 27.5712 93.1099 28.2216C93.4802 28.8719 93.6653 29.6174 93.6653 30.4579C93.6653 31.2984 93.4752 32.0438 93.0949 32.6942C92.7147 33.3446 92.1944 33.8499 91.534 34.2101C90.8836 34.5603 90.1632 34.7354 89.3727 34.7354ZM89.3727 33.2495C89.813 33.2495 90.2233 33.1444 90.6035 32.9343C90.9937 32.7242 91.3089 32.409 91.549 31.9888C91.7892 31.5685 91.9092 31.0582 91.9092 30.4579C91.9092 29.8575 91.7942 29.3522 91.564 28.942C91.3339 28.5217 91.0287 28.2065 90.6485 27.9964C90.2683 27.7863 89.858 27.6812 89.4178 27.6812C88.9775 27.6812 88.5673 27.7863 88.1871 27.9964C87.8168 28.2065 87.5217 28.5217 87.3015 28.942C87.0814 29.3522 86.9713 29.8575 86.9713 30.4579C86.9713 31.3484 87.1965 32.0388 87.6467 32.5291C88.107 33.0094 88.6823 33.2495 89.3727 33.2495Z" fill="#F7F7F7" fill-opacity="0.75"/>
<path d="M102.801 26.3304L97.7281 38.4876H95.957L97.638 34.4652L94.3811 26.3304H96.2872L98.6136 32.6341L101.03 26.3304H102.801Z" fill="#F7F7F7" fill-opacity="0.75"/>
<path d="M103.522 30.4278C103.522 29.5974 103.692 28.8619 104.032 28.2216C104.382 27.5812 104.853 27.0859 105.443 26.7357C106.043 26.3755 106.704 26.1954 107.424 26.1954C108.075 26.1954 108.64 26.3254 109.12 26.5856C109.611 26.8357 110.001 27.1509 110.291 27.5312V26.3304H112.017V34.6003H110.291V33.3696C110.001 33.7598 109.606 34.085 109.105 34.3452C108.605 34.6053 108.035 34.7354 107.394 34.7354C106.684 34.7354 106.033 34.5553 105.443 34.1951C104.853 33.8248 104.382 33.3145 104.032 32.6642C103.692 32.0038 103.522 31.2583 103.522 30.4278ZM110.291 30.4579C110.291 29.8875 110.171 29.3922 109.931 28.972C109.701 28.5518 109.395 28.2316 109.015 28.0114C108.635 27.7913 108.225 27.6812 107.784 27.6812C107.344 27.6812 106.934 27.7913 106.554 28.0114C106.174 28.2216 105.863 28.5367 105.623 28.957C105.393 29.3672 105.278 29.8575 105.278 30.4278C105.278 30.9982 105.393 31.4985 105.623 31.9287C105.863 32.359 106.174 32.6892 106.554 32.9193C106.944 33.1394 107.354 33.2495 107.784 33.2495C108.225 33.2495 108.635 33.1394 109.015 32.9193C109.395 32.6992 109.701 32.379 109.931 31.9588C110.171 31.5285 110.291 31.0282 110.291 30.4579Z" fill="#F7F7F7" fill-opacity="0.75"/>
<path d="M115.975 23.4938V34.6003H114.264V23.4938H115.975Z" fill="#F7F7F7" fill-opacity="0.75"/>
<path d="M121.55 30.4579C121.55 29.6074 121.72 28.8619 122.06 28.2216C122.411 27.5712 122.891 27.0709 123.501 26.7207C124.112 26.3705 124.812 26.1954 125.602 26.1954C126.603 26.1954 127.429 26.4355 128.079 26.9158C128.739 27.3861 129.185 28.0615 129.415 28.942H127.569C127.419 28.5317 127.178 28.2115 126.848 27.9814C126.518 27.7513 126.103 27.6362 125.602 27.6362C124.902 27.6362 124.342 27.8864 123.921 28.3867C123.511 28.8769 123.306 29.5673 123.306 30.4579C123.306 31.3484 123.511 32.0438 123.921 32.5441C124.342 33.0444 124.902 33.2945 125.602 33.2945C126.593 33.2945 127.248 32.8593 127.569 31.9888H129.415C129.175 32.8293 128.724 33.4997 128.064 34C127.404 34.4902 126.583 34.7354 125.602 34.7354C124.812 34.7354 124.112 34.5603 123.501 34.2101C122.891 33.8499 122.411 33.3496 122.06 32.7092C121.72 32.0588 121.55 31.3084 121.55 30.4579Z" fill="#F7F7F7" fill-opacity="0.75"/>
<path d="M138.609 26.3304V34.6003H136.898V33.6247C136.628 33.9649 136.273 34.2351 135.833 34.4352C135.402 34.6253 134.942 34.7204 134.452 34.7204C133.801 34.7204 133.216 34.5853 132.696 34.3151C132.185 34.045 131.78 33.6447 131.48 33.1144C131.19 32.5841 131.045 31.9437 131.045 31.1933V26.3304H132.741V30.9382C132.741 31.6786 132.926 32.2489 133.296 32.6492C133.666 33.0394 134.172 33.2345 134.812 33.2345C135.452 33.2345 135.958 33.0394 136.328 32.6492C136.708 32.2489 136.898 31.6786 136.898 30.9382V26.3304H138.609Z" fill="#F7F7F7" fill-opacity="0.75"/>
<path d="M143.869 34.7354C143.218 34.7354 142.633 34.6203 142.113 34.3902C141.602 34.15 141.197 33.8299 140.897 33.4296C140.597 33.0194 140.437 32.5641 140.417 32.0638H142.188C142.218 32.414 142.383 32.7092 142.683 32.9493C142.993 33.1795 143.378 33.2945 143.839 33.2945C144.319 33.2945 144.689 33.2045 144.949 33.0244C145.219 32.8343 145.354 32.5941 145.354 32.304C145.354 31.9938 145.204 31.7636 144.904 31.6135C144.614 31.4635 144.149 31.2984 143.508 31.1183C142.888 30.9482 142.383 30.7831 141.992 30.623C141.602 30.4629 141.262 30.2177 140.972 29.8875C140.692 29.5573 140.552 29.1221 140.552 28.5818C140.552 28.1415 140.682 27.7413 140.942 27.3811C141.202 27.0108 141.572 26.7207 142.052 26.5106C142.543 26.3004 143.103 26.1954 143.733 26.1954C144.674 26.1954 145.429 26.4355 146 26.9158C146.58 27.3861 146.89 28.0314 146.93 28.8519H145.219C145.189 28.4817 145.039 28.1865 144.769 27.9664C144.499 27.7463 144.134 27.6362 143.673 27.6362C143.223 27.6362 142.878 27.7213 142.638 27.8914C142.398 28.0615 142.278 28.2866 142.278 28.5668C142.278 28.7869 142.358 28.972 142.518 29.1221C142.678 29.2722 142.873 29.3922 143.103 29.4823C143.333 29.5623 143.673 29.6674 144.124 29.7975C144.724 29.9576 145.214 30.1227 145.595 30.2928C145.985 30.4529 146.32 30.693 146.6 31.0132C146.88 31.3334 147.025 31.7586 147.035 32.2889C147.035 32.7592 146.905 33.1795 146.645 33.5497C146.385 33.9199 146.015 34.2101 145.535 34.4202C145.064 34.6303 144.509 34.7354 143.869 34.7354Z" fill="#F7F7F7" fill-opacity="0.75"/>
<path d="M150.88 27.7263V32.304C150.88 32.6141 150.95 32.8393 151.09 32.9794C151.241 33.1094 151.491 33.1745 151.841 33.1745H152.892V34.6003H151.541C150.77 34.6003 150.18 34.4202 149.77 34.06C149.359 33.6998 149.154 33.1144 149.154 32.304V27.7263H148.179V26.3304H149.154V24.2742H150.88V26.3304H152.892V27.7263H150.88Z" fill="#F7F7F7" fill-opacity="0.75"/>
<path d="M158.056 34.7354C157.275 34.7354 156.57 34.5603 155.939 34.2101C155.309 33.8499 154.814 33.3496 154.454 32.7092C154.093 32.0588 153.913 31.3084 153.913 30.4579C153.913 29.6174 154.098 28.8719 154.469 28.2216C154.839 27.5712 155.344 27.0709 155.984 26.7207C156.625 26.3705 157.34 26.1954 158.131 26.1954C158.921 26.1954 159.637 26.3705 160.277 26.7207C160.917 27.0709 161.423 27.5712 161.793 28.2216C162.163 28.8719 162.348 29.6174 162.348 30.4579C162.348 31.2984 162.158 32.0438 161.778 32.6942C161.398 33.3446 160.877 33.8499 160.217 34.2101C159.567 34.5603 158.846 34.7354 158.056 34.7354ZM158.056 33.2495C158.496 33.2495 158.906 33.1444 159.286 32.9343C159.677 32.7242 159.992 32.409 160.232 31.9888C160.472 31.5685 160.592 31.0582 160.592 30.4579C160.592 29.8575 160.477 29.3522 160.247 28.942C160.017 28.5217 159.712 28.2065 159.331 27.9964C158.951 27.7863 158.541 27.6812 158.101 27.6812C157.66 27.6812 157.25 27.7863 156.87 27.9964C156.5 28.2065 156.205 28.5217 155.984 28.942C155.764 29.3522 155.654 29.8575 155.654 30.4579C155.654 31.3484 155.879 32.0388 156.33 32.5291C156.79 33.0094 157.365 33.2495 158.056 33.2495Z" fill="#F7F7F7" fill-opacity="0.75"/>
<path d="M174.05 26.1954C174.701 26.1954 175.281 26.3305 175.791 26.6006C176.312 26.8708 176.717 27.271 177.007 27.8013C177.307 28.3316 177.457 28.972 177.457 29.7224V34.6003H175.761V29.9776C175.761 29.2372 175.576 28.6718 175.206 28.2816C174.836 27.8814 174.331 27.6812 173.69 27.6812C173.05 27.6812 172.54 27.8814 172.159 28.2816C171.789 28.6718 171.604 29.2372 171.604 29.9776V34.6003H169.908V29.9776C169.908 29.2372 169.723 28.6718 169.353 28.2816C168.982 27.8814 168.477 27.6812 167.837 27.6812C167.196 27.6812 166.686 27.8814 166.306 28.2816C165.936 28.6718 165.751 29.2372 165.751 29.9776V34.6003H164.04V26.3304H165.751V27.276C166.031 26.9358 166.386 26.6706 166.816 26.4805C167.246 26.2904 167.707 26.1954 168.197 26.1954C168.857 26.1954 169.448 26.3355 169.968 26.6156C170.488 26.8958 170.889 27.301 171.169 27.8313C171.419 27.331 171.809 26.9358 172.339 26.6456C172.87 26.3455 173.44 26.1954 174.05 26.1954Z" fill="#F7F7F7" fill-opacity="0.75"/>
<path d="M187.214 30.2628C187.214 30.5729 187.194 30.8531 187.154 31.1032H180.835C180.885 31.7636 181.131 32.2939 181.571 32.6942C182.011 33.0944 182.551 33.2945 183.192 33.2945C184.112 33.2945 184.763 32.9093 185.143 32.1389H186.989C186.739 32.8993 186.284 33.5247 185.623 34.015C184.973 34.4952 184.162 34.7354 183.192 34.7354C182.401 34.7354 181.691 34.5603 181.06 34.2101C180.44 33.8499 179.95 33.3496 179.59 32.7092C179.239 32.0588 179.064 31.3084 179.064 30.4579C179.064 29.6074 179.234 28.8619 179.575 28.2216C179.925 27.5712 180.41 27.0709 181.03 26.7207C181.661 26.3705 182.381 26.1954 183.192 26.1954C183.972 26.1954 184.668 26.3655 185.278 26.7057C185.888 27.0459 186.364 27.5261 186.704 28.1465C187.044 28.7569 187.214 29.4623 187.214 30.2628ZM185.428 29.7224C185.418 29.0921 185.193 28.5868 184.753 28.2065C184.312 27.8263 183.767 27.6362 183.117 27.6362C182.526 27.6362 182.021 27.8263 181.601 28.2065C181.181 28.5768 180.93 29.0821 180.85 29.7224H185.428Z" fill="#F7F7F7" fill-opacity="0.75"/>
<path d="M190.609 27.5312C190.859 27.1109 191.189 26.7857 191.599 26.5556C192.02 26.3154 192.515 26.1954 193.085 26.1954V27.9664H192.65C191.98 27.9664 191.469 28.1365 191.119 28.4767C190.779 28.8169 190.609 29.4073 190.609 30.2477V34.6003H188.898V26.3304H190.609V27.5312Z" fill="#F7F7F7" fill-opacity="0.75"/>
<path d="M197.66 34.7354C197.009 34.7354 196.424 34.6203 195.904 34.3902C195.394 34.15 194.988 33.8299 194.688 33.4296C194.388 33.0194 194.228 32.5641 194.208 32.0638H195.979C196.009 32.414 196.174 32.7092 196.474 32.9493C196.784 33.1795 197.17 33.2945 197.63 33.2945C198.11 33.2945 198.48 33.2045 198.741 33.0244C199.011 32.8343 199.146 32.5941 199.146 32.304C199.146 31.9938 198.996 31.7636 198.695 31.6135C198.405 31.4635 197.94 31.2984 197.3 31.1183C196.679 30.9482 196.174 30.7831 195.784 30.623C195.394 30.4629 195.053 30.2177 194.763 29.8875C194.483 29.5573 194.343 29.1221 194.343 28.5818C194.343 28.1415 194.473 27.7413 194.733 27.3811C194.993 27.0108 195.364 26.7207 195.844 26.5106C196.334 26.3004 196.894 26.1954 197.525 26.1954C198.465 26.1954 199.221 26.4355 199.791 26.9158C200.371 27.3861 200.682 28.0314 200.722 28.8519H199.011C198.981 28.4817 198.831 28.1865 198.56 27.9664C198.29 27.7463 197.925 27.6362 197.465 27.6362C197.014 27.6362 196.669 27.7213 196.429 27.8914C196.189 28.0615 196.069 28.2866 196.069 28.5668C196.069 28.7869 196.149 28.972 196.309 29.1221C196.469 29.2722 196.664 29.3922 196.894 29.4823C197.125 29.5623 197.465 29.6674 197.915 29.7975C198.515 29.9576 199.006 30.1227 199.386 30.2928C199.776 30.4529 200.111 30.693 200.391 31.0132C200.672 31.3334 200.817 31.7586 200.827 32.2889C200.827 32.7592 200.697 33.1795 200.436 33.5497C200.176 33.9199 199.806 34.2101 199.326 34.4202C198.856 34.6303 198.3 34.7354 197.66 34.7354Z" fill="#F7F7F7" fill-opacity="0.75"/>
<path d="M206.383 34.7054C206.073 34.7054 205.812 34.6003 205.602 34.3902C205.392 34.1801 205.287 33.9199 205.287 33.6097C205.287 33.2995 205.392 33.0394 205.602 32.8293C205.812 32.6191 206.073 32.5141 206.383 32.5141C206.683 32.5141 206.938 32.6191 207.148 32.8293C207.358 33.0394 207.463 33.2995 207.463 33.6097C207.463 33.9199 207.358 34.1801 207.148 34.3902C206.938 34.6003 206.683 34.7054 206.383 34.7054ZM209.414 34.7054C209.104 34.7054 208.844 34.6003 208.634 34.3902C208.424 34.1801 208.319 33.9199 208.319 33.6097C208.319 33.2995 208.424 33.0394 208.634 32.8293C208.844 32.6191 209.104 32.5141 209.414 32.5141C209.715 32.5141 209.97 32.6191 210.18 32.8293C210.39 33.0394 210.495 33.2995 210.495 33.6097C210.495 33.9199 210.39 34.1801 210.18 34.3902C209.97 34.6003 209.715 34.7054 209.414 34.7054ZM203.366 34.7054C203.056 34.7054 202.796 34.6003 202.585 34.3902C202.375 34.1801 202.27 33.9199 202.27 33.6097C202.27 33.2995 202.375 33.0394 202.585 32.8293C202.796 32.6191 203.056 32.5141 203.366 32.5141C203.666 32.5141 203.921 32.6191 204.131 32.8293C204.341 33.0394 204.447 33.2995 204.447 33.6097C204.447 33.9199 204.341 34.1801 204.131 34.3902C203.921 34.6003 203.666 34.7054 203.366 34.7054Z" fill="#F7F7F7" fill-opacity="0.75"/>
</svg>
