<svg width="26" height="22" viewBox="0 0 26 22" fill="none" xmlns="http://www.w3.org/2000/svg">
<path d="M1.78736 9.27597C8.76666 6.2352 13.4206 4.23054 15.7492 3.26198C22.3979 0.496567 23.7795 0.0161854 24.6799 0.000153783C24.878 -0.00316587 25.3208 0.0459163 25.6076 0.278669C25.8499 0.475202 25.9165 0.740689 25.9484 0.927023C25.9803 1.11336 26.02 1.53783 25.9884 1.8695C25.6281 5.65515 24.0691 14.8419 23.276 19.0819C22.9404 20.876 22.2796 21.4775 21.6399 21.5364C20.2496 21.6644 19.1938 20.6176 17.8473 19.7349C15.7401 18.3537 14.5497 17.4938 12.5044 16.146C10.1407 14.5883 11.673 13.7322 13.0201 12.3331C13.3726 11.9669 19.4983 6.39512 19.6169 5.88967C19.6317 5.82645 19.6455 5.59082 19.5055 5.46639C19.3655 5.34197 19.1589 5.38452 19.0098 5.41836C18.7984 5.46632 15.4323 7.69123 8.91131 12.0931C7.95584 12.7492 7.0904 13.0688 6.315 13.0521C5.46018 13.0336 3.81586 12.5688 2.59347 12.1714C1.09416 11.684 -0.0974647 11.4264 0.00629874 10.5987C0.0603452 10.1676 0.654033 9.72666 1.78736 9.27597Z" fill="#E5E5E5"/>
</svg>
