<svg width="26" height="22" viewBox="0 0 26 22" fill="none" xmlns="http://www.w3.org/2000/svg">
<path d="M26 2.4375C25.025 2.925 24.05 3.0875 22.9125 3.25C24.05 2.6 24.8625 1.625 25.1875 0.324999C24.2125 0.974999 23.075 1.3 21.775 1.625C20.8 0.649999 19.3375 0 17.875 0C14.4625 0 11.8625 3.25 12.675 6.49999C8.28749 6.33749 4.3875 4.225 1.625 0.975C0.1625 3.4125 0.974999 6.49999 3.25 8.12499C2.4375 8.12499 1.625 7.79999 0.812499 7.47499C0.812499 9.91249 2.6 12.1875 5.0375 12.8375C4.225 13 3.4125 13.1625 2.6 13C3.25 15.1125 5.19999 16.7375 7.63749 16.7375C5.68749 18.2 2.7625 19.0125 0 18.6875C2.4375 20.15 5.2 21.125 8.12499 21.125C18.0375 21.125 23.5625 12.8375 23.2375 5.19999C24.375 4.54999 25.35 3.575 26 2.4375Z" fill="#E5E5E5"/>
</svg>
