<svg width="23" height="22" viewBox="0 0 23 22" fill="none" xmlns="http://www.w3.org/2000/svg">
<path d="M10.0808 1.63312C10.4008 0.789057 11.6119 0.789057 11.9329 1.63312L14.0031 7.36753C14.0753 7.55433 14.2025 7.71484 14.3678 7.82786C14.5331 7.94088 14.7289 8.0011 14.9291 8.00058H20.0165C20.9566 8.00058 21.3666 9.17066 20.6275 9.7437L17.0073 13.0009C16.8451 13.1256 16.7266 13.2984 16.6688 13.4946C16.6109 13.6908 16.6167 13.9003 16.6853 14.093L18.0074 19.6964C18.3294 20.5965 17.2873 21.3695 16.4992 20.8155L11.5819 17.6953C11.4135 17.5769 11.2127 17.5134 11.0069 17.5134C10.801 17.5134 10.6002 17.5769 10.4318 17.6953L5.51446 20.8155C4.7274 21.3695 3.68432 20.5955 4.00635 19.6964L5.32844 14.093C5.39703 13.9003 5.40281 13.6908 5.34495 13.4946C5.2871 13.2984 5.16859 13.1256 5.00642 13.0009L1.38616 9.7437C0.646105 9.17066 1.05813 8.00058 1.9962 8.00058H7.08357C7.28388 8.00124 7.47966 7.94108 7.64503 7.82804C7.81039 7.715 7.93753 7.55441 8.00964 7.36753L10.0798 1.63312H10.0808Z" stroke="#E5E5E5" stroke-width="2" stroke-linecap="round" stroke-linejoin="round"/>
</svg>
