<svg width="23" height="22" viewBox="0 0 23 22" fill="none" xmlns="http://www.w3.org/2000/svg">
<path d="M10.0807 1.63311C10.4007 0.789055 11.6118 0.789055 11.9328 1.63311L14.003 7.36751C14.0752 7.55431 14.2024 7.71482 14.3677 7.82784C14.533 7.94086 14.7288 8.00109 14.929 8.00056H20.0164C20.9565 8.00056 21.3665 9.17064 20.6274 9.74368L17.0072 13.0009C16.845 13.1256 16.7265 13.2984 16.6687 13.4946C16.6108 13.6908 16.6166 13.9003 16.6852 14.093L18.0073 19.6964C18.3293 20.5964 17.2872 21.3695 16.4992 20.8155L11.5818 17.6952C11.4134 17.5769 11.2126 17.5134 11.0068 17.5134C10.8009 17.5134 10.6001 17.5769 10.4317 17.6952L5.51438 20.8155C4.72733 21.3695 3.68425 20.5954 4.00628 19.6964L5.32837 14.093C5.39695 13.9003 5.40273 13.6908 5.34488 13.4946C5.28703 13.2984 5.16851 13.1256 5.00635 13.0009L1.38609 9.74368C0.646042 9.17064 1.05807 8.00056 1.99614 8.00056H7.08349C7.2838 8.00123 7.47959 7.94106 7.64495 7.82802C7.81031 7.71498 7.93746 7.55439 8.00956 7.36751L10.0797 1.63311H10.0807Z" fill="#DD821F" stroke="#DD821F" stroke-width="2" stroke-linecap="round" stroke-linejoin="round"/>
</svg>
